<?xml version="1.0" encoding="utf-8"?>
<!-- Generator: Adobe Illustrator 27.4.1, SVG Export Plug-In . SVG Version: 6.00 Build 0)  -->
<svg version="1.1" id="Layer_1" xmlns="http://www.w3.org/2000/svg" xmlns:xlink="http://www.w3.org/1999/xlink" x="0px" y="0px"
	 width="123.2px" height="96.2px" viewBox="0 0 123.2 96.2" style="enable-background:new 0 0 123.2 96.2;" xml:space="preserve">
<style type="text/css">
	.st0{fill:#1B1B50;}
	.st1{fill-rule:evenodd;clip-rule:evenodd;fill:#1B1B50;}
	.st2{fill:#FF4A04;}
	.st3{opacity:0.65;fill:#1B1B50;enable-background:new    ;}
</style>
<path class="st0" d="M123.2,61.6c0,12.8-3.9,24.7-10.6,34.6c-12.2-1.5-24.6-2.4-37.2-2.8v-0.1L48,38.2c-2.6-5.2-7.8-8.4-13.6-8.4
	H8.9C19.7,11.9,39.3,0,61.6,0C95.6,0,123.2,27.6,123.2,61.6z"/>
<path class="st1" d="M0,61.6c0,12.7,3.8,24.5,10.4,34.3c12.9-1.5,26.1-2.4,39.3-2.7c-0.9-0.1-1.8-0.7-2.2-1.6L23.7,41.9
	c-2.8-5.9-8.8-9.7-15.4-9.7H7.5C2.7,41,0,51,0,61.6z M14.3,64l1.1,3.3c0.1,0.5,0.8,0.4,0.9,0l1-3.3c0.2-0.7,0.7-1.2,1.4-1.4l3.3-1.1
	c0.5-0.1,0.4-0.8,0-0.9l-3.3-1c-0.7-0.2-1.2-0.7-1.4-1.4l-1.1-3.3c-0.1-0.5-0.8-0.4-0.9,0l-1,3.3c-0.2,0.7-0.7,1.2-1.4,1.4l-3.3,1
	c-0.5,0.1-0.4,0.8,0,0.9l3.3,1C13.6,62.8,14.1,63.3,14.3,64z"/>
<path class="st2" d="M11.4,95.8c12.7-1.4,25.5-2.3,38.4-2.6c-0.9-0.1-1.8-0.7-2.2-1.6L35.2,65.7C25.9,74.6,17.9,84.7,11.4,95.8z"/>
<path class="st2" d="M54.2,50.7c17.5-11.5,37.9-19,59.9-21.3c5.8,9.4,9.1,20.4,9.1,32.2c0,12.8-3.9,24.7-10.6,34.6
	c-12.2-1.5-24.6-2.4-37.2-2.8v-0.1L54.2,50.7z"/>
<path class="st3" d="M114.1,29.4c0.7,1.1,1.3,2.2,1.9,3.3c-6.1,1.8-11.3,6-14.1,11.9L78.7,92.9c-0.1,0.2-0.2,0.4-0.3,0.5
	c-1,0-1.9-0.1-2.9-0.1v-0.1L65,72.3l7.5-18.5C76,45.2,82.3,38.4,90,34.1C97.8,31.8,105.8,30.2,114.1,29.4z"/>
<path class="st0" d="M78.3,93.4c-0.9,0-1.9-0.1-2.8-0.1v-0.1L66,74.1c8.5-4.6,17.6-8.2,27-10.9L78.7,92.8
	C78.6,93,78.4,93.2,78.3,93.4z"/>
</svg>
