<?xml version="1.0" encoding="utf-8"?>
<!-- Generator: Adobe Illustrator 27.5.0, SVG Export Plug-In . SVG Version: 6.00 Build 0)  -->
<svg version="1.1" id="Layer_1" xmlns="http://www.w3.org/2000/svg" xmlns:xlink="http://www.w3.org/1999/xlink" x="0px" y="0px"
	 width="509.7px" height="99.3px" viewBox="0 0 509.7 99.3" style="enable-background:new 0 0 509.7 99.3;" xml:space="preserve">
<style type="text/css">
	.st0{fill:#FFEAD2;}
	.st1{fill-rule:evenodd;clip-rule:evenodd;fill:#FFEAD2;}
	.st2{fill:#FF4A04;}
	.st3{opacity:0.65;fill:#121212;enable-background:new    ;}
	.st4{opacity:0.56;fill:#1B1B1B;enable-background:new    ;}
	.st5{fill-rule:evenodd;clip-rule:evenodd;fill:#FFFFFF;}
</style>
<g>
	<g>
		<path class="st0" d="M124.9,63.3c0,13-4,25-10.8,35c-12.4-1.4-24.9-2.4-37.7-2.8v-0.1L48.7,39.5C46,34.4,40.7,31,34.8,31H9
			c11-18.1,30.8-30.1,53.4-30.1C96.9,0.9,124.9,28.8,124.9,63.3z"/>
		<path class="st1" d="M0,63.3c0,12.9,3.9,24.8,10.6,34.8c13.1-1.5,26.5-2.4,39.9-2.7c-0.9-0.1-1.8-0.7-2.2-1.6L24,43.4
			c-2.8-6-9-9.8-15.6-9.8H7.6C2.7,42.4,0,52.5,0,63.3z M14.5,65.7l1.1,3.4c0.1,0.5,0.8,0.4,0.9,0l1-3.4c0.2-0.7,0.7-1.2,1.4-1.4
			l3.4-1.1c0.5-0.1,0.4-0.8,0-0.9l-3.4-1c-0.7-0.2-1.2-0.7-1.4-1.4l-1.1-3.4c-0.1-0.5-0.8-0.4-0.9,0l-1,3.4
			c-0.2,0.7-0.7,1.2-1.4,1.4l-3.4,1.1c-0.5,0.1-0.4,0.8,0,0.9l3.4,1C13.7,64.5,14.2,65,14.5,65.7z"/>
		<path class="st2" d="M11.5,98c12.8-1.4,25.9-2.3,39-2.6c-0.9-0.1-1.8-0.7-2.2-1.6L35.6,67.5C26.3,76.5,18.1,86.7,11.5,98z"/>
		<path class="st2" d="M55,52.3C72.8,40.7,93.4,33,115.6,30.7c5.8,9.5,9.2,20.7,9.2,32.7c0,13-4,25-10.8,35
			c-12.4-1.4-24.9-2.4-37.7-2.8v-0.1L55,52.3z"/>
		<path class="st3" d="M115.6,30.6c0.7,1.1,1.3,2.2,1.9,3.4c-6.2,1.8-11.4,6.1-14.4,12.1L79.7,95c-0.1,0.2-0.2,0.4-0.3,0.5
			c-1,0-1.9-0.1-3-0.1v-0.1L65.9,74.2l7.6-18.7c3.6-8.7,9.9-15.7,17.7-19.9C99.1,33.1,107.3,31.5,115.6,30.6z"/>
		<path class="st4" d="M79.3,95.6c-0.9-0.1-1.9-0.1-2.8-0.1v-0.1l-9.7-19.3c8.7-4.6,17.8-8.3,27.4-11.1L79.8,94.9
			C79.6,95.1,79.5,95.4,79.3,95.6z"/>
	</g>
	<g>
		<g>
			<g>
				<g>
					<path class="st5" d="M162.2,34.5c-0.3,0-0.6,0.1-0.8,0.4c-0.2,0.2-0.2,0.6-0.1,0.9l16.8,47.7c0.1,0.4,0.5,0.6,0.9,0.6h8
						c0.4,0,0.8-0.3,0.9-0.6l16.8-47.7c0.1-0.3,0.1-0.6-0.1-0.9c-0.2-0.3-0.5-0.4-0.8-0.4h-6.7c-0.4,0-0.8,0.3-0.9,0.6L183.1,73
						l-13.2-37.9c-0.1-0.4-0.5-0.6-0.9-0.6H162.2z"/>
					<path class="st5" d="M270.3,34.5c-0.3,0-0.6,0.2-0.8,0.5c-0.2,0.3-0.2,0.6,0,0.9L286,66.3v16.7c0,0.5,0.4,0.9,0.9,0.9h6.3
						c0.5,0,0.9-0.4,0.9-0.9V66.4L310.6,36c0.2-0.3,0.2-0.6,0-0.9c-0.2-0.3-0.5-0.5-0.8-0.5H303c-0.3,0-0.7,0.2-0.8,0.5l-12.1,22.7
						L278.1,35c-0.2-0.3-0.5-0.5-0.8-0.5H270.3z"/>
					<path class="st5" d="M237.1,75.2c9,0,16.2-7.3,16.2-16.2s-7.3-16.2-16.2-16.2S220.9,50,220.9,59
						C220.8,67.9,228.2,75.2,237.1,75.2z M237.1,83.8c13.7,0,24.8-11.2,24.8-24.8s-11.2-24.8-24.8-24.8c-13.7,0-24.8,11.2-24.8,24.8
						S223.4,83.8,237.1,83.8z"/>
					<path class="st5" d="M392,33.9c-4,0-7.6,0.7-10.7,2.2c-3,1.4-5.5,3.4-7.6,5.9l0,0c-2,2.4-3.5,5.2-4.4,8.2l0,0
						c-0.9,3-1.4,6.1-1.4,9.3c0,3.2,0.5,6.2,1.4,9.3l0,0c1,3,2.5,5.7,4.4,8.2l0,0c2,2.4,4.5,4.4,7.5,5.8c3,1.5,6.6,2.2,10.6,2.2
						c4,0,7.7-0.8,11-2.6l0,0c3.3-1.8,5.9-4.4,7.9-7.8c2-3.5,3-7.7,3-12.7v-3.3c0-0.5-0.4-0.9-0.9-0.9h-20.2c-0.5,0-0.9,0.4-0.9,0.9
						v5.2c0,0.5,0.4,0.9,0.9,0.9h13c-0.4,3.8-1.7,6.8-3.9,9c-2.4,2.4-5.6,3.6-9.9,3.6c-2.6,0-4.8-0.5-6.8-1.4c-1.9-1-3.6-2.4-4.9-4
						c-1.3-1.7-2.3-3.6-2.9-5.8c-0.7-2.2-1-4.4-1-6.7c0-2.2,0.3-4.4,1-6.5l0,0c0.7-2.1,1.6-4,2.9-5.7l0,0c1.3-1.7,2.9-3,4.9-4.1
						c2-1,4.3-1.5,7-1.5c2.3,0,4.2,0.3,5.6,1l0,0c1.5,0.7,2.7,1.4,3.6,2.4l0,0c1,0.9,1.7,1.9,2.1,2.8l0,0c0.5,1,0.8,1.7,1,2.3l0.3,1
						c0.1,0.4,0.5,0.7,0.9,0.7h6.4c0.3,0,0.6-0.1,0.7-0.4c0.2-0.2,0.2-0.5,0.2-0.8l-0.3-1.1c-0.1-0.9-0.5-1.9-1-3.1
						c-0.5-1.3-1.2-2.6-2.2-4c-1-1.5-2.2-2.8-3.7-4.1c-1.6-1.3-3.5-2.3-5.8-3.1C397.8,34.3,395.1,33.9,392,33.9z"/>
					<path class="st5" d="M428.1,34.5c-0.5,0-0.9,0.4-0.9,0.9v47.7c0,0.5,0.4,0.9,0.9,0.9h30.6c0.5,0,0.9-0.4,0.9-0.9v-5.6
						c0-0.5-0.4-0.9-0.9-0.9h-23.3v-14h20c0.5,0,0.9-0.4,0.9-0.9v-5.6c0-0.5-0.4-0.9-0.9-0.9h-20V41.9h23c0.5,0,0.9-0.4,0.9-0.9
						v-5.6c0-0.5-0.4-0.9-0.9-0.9L428.1,34.5L428.1,34.5z"/>
					<path class="st5" d="M475.2,35.5c-0.5,0-0.9,0.4-0.9,0.9v47.7c0,0.5,0.4,0.9,0.9,0.9h6.3c0.5,0,0.9-0.4,0.9-0.9V65h7.2
						l11.3,19.5c0.2,0.3,0.5,0.5,0.8,0.5h7.2c0.3,0,0.6-0.2,0.8-0.5c0.2-0.3,0.2-0.7,0-0.9l-11.4-19.5c1.9-0.6,3.6-1.6,5-2.8l0,0
						c1.7-1.5,2.9-3.2,3.7-5.1c0.8-1.9,1.2-3.9,1.2-6c0-2.5-0.6-4.9-1.8-7.1c-1.2-2.3-3-4.1-5.4-5.5c-2.4-1.4-5.4-2.1-9-2.1
						L475.2,35.5L475.2,35.5z M482.3,57.7V42.8h9.6c1.9,0,3.3,0.4,4.4,1.1c1.2,0.7,2,1.7,2.6,2.8l0,0c0.6,1.1,0.9,2.3,0.9,3.6
						c0,1.2-0.3,2.4-0.9,3.6c-0.6,1.1-1.4,2-2.6,2.7c-1.1,0.7-2.6,1.1-4.4,1.1L482.3,57.7z"/>
					<path class="st5" d="M333.2,34.5c-0.4,0-0.8,0.3-0.9,0.6l-16.8,47.7c-0.1,0.3-0.1,0.6,0.1,0.9c0.2,0.2,0.5,0.4,0.8,0.4h6.7
						c0.4,0,0.8-0.3,0.9-0.6l6-17c0-0.1,0-0.1,0-0.2l7.2-20.6l0.2,0.5l7.1,20.1c0,0.1,0,0.1,0,0.2l5.7,16.1l0.3,0.9
						c0.1,0.4,0.5,0.6,0.9,0.6h6.7c0.3,0,0.6-0.1,0.8-0.4c0.2-0.2,0.2-0.6,0.1-0.9L342,35.1c-0.1-0.4-0.5-0.6-0.9-0.6H333.2z"/>
				</g>
			</g>
		</g>
	</g>
</g>
</svg>
