<?xml version="1.0" encoding="utf-8"?>
<!-- Generator: Adobe Illustrator 27.5.0, SVG Export Plug-In . SVG Version: 6.00 Build 0)  -->
<svg version="1.1" id="Layer_1" xmlns="http://www.w3.org/2000/svg" xmlns:xlink="http://www.w3.org/1999/xlink" x="0px" y="0px"
	 width="508.5px" height="106.5px" viewBox="0 0 508.5 106.5" style="enable-background:new 0 0 508.5 106.5;" xml:space="preserve"
	>
<style type="text/css">
	.st0{opacity:0.6;}
	.st1{opacity:0.6;fill:#26296E;enable-background:new    ;}
	.st2{fill:#1B1B50;}
	.st3{fill-rule:evenodd;clip-rule:evenodd;fill:#1B1B50;}
	.st4{fill:#FC4B05;}
	.st5{opacity:0.65;fill:#1B1B50;enable-background:new    ;}
</style>
<g>
	<g class="st0">
		<path class="st1" d="M165,106.5c-0.8,0-1.6-0.1-2.4-0.2c-0.7-0.1-1.4-0.3-1.9-0.5v-2.7c0.6,0.3,1.2,0.5,1.9,0.6
			c0.7,0.2,1.4,0.2,2,0.2c0.8,0,1.4-0.1,1.8-0.2c0.4-0.1,0.6-0.5,0.6-0.9c0-0.3-0.1-0.6-0.3-0.8c-0.2-0.2-0.5-0.4-0.9-0.5
			c-0.4-0.2-1-0.3-1.7-0.6c-0.9-0.3-1.6-0.6-2.1-0.9c-0.5-0.3-0.9-0.7-1.1-1.2c-0.2-0.5-0.3-1-0.3-1.7c0-1.2,0.4-2.1,1.3-2.8
			c0.9-0.6,2.2-1,3.9-1c0.7,0,1.5,0.1,2.2,0.2c0.7,0.1,1.3,0.2,1.7,0.4v2.7c-0.6-0.2-1.1-0.4-1.7-0.5c-0.6-0.1-1.1-0.2-1.7-0.2
			c-0.7,0-1.3,0.1-1.7,0.2s-0.7,0.4-0.7,0.9c0,0.3,0.1,0.5,0.2,0.7c0.2,0.2,0.4,0.3,0.8,0.4c0.4,0.1,0.9,0.3,1.6,0.5
			c1,0.3,1.8,0.6,2.4,1c0.6,0.4,0.9,0.8,1.1,1.3c0.2,0.5,0.3,1.1,0.3,1.7c0,1.1-0.4,2-1.3,2.7C168.1,106.1,166.8,106.5,165,106.5z"
			/>
		<path class="st1" d="M178.6,106.3V96h-3.7v-2.5h10.7V96h-3.7v10.3H178.6z"/>
		<path class="st1" d="M189.1,106.3l4.9-12.7h3.4l4.9,12.7h-3.4l-1.1-2.9h-4.3l-1.1,2.9H189.1z M194,101h3.4l-1.7-4.4L194,101z"/>
		<path class="st1" d="M208,106.3V93.5h6.4c1.5,0,2.6,0.4,3.3,1.2c0.7,0.8,1.1,1.9,1.1,3.2c0,0.9-0.2,1.6-0.7,2.3
			c-0.4,0.6-1,1.1-1.8,1.4c0.2,0.1,0.3,0.3,0.4,0.5c0.1,0.2,0.2,0.4,0.4,0.7l1.5,3.4h-3.3l-1.4-3.2c-0.1-0.3-0.3-0.5-0.5-0.6
			c-0.2-0.1-0.4-0.2-0.8-0.2h-1.5v4L208,106.3L208,106.3z M211.2,99.8h2.4c0.6,0,1.1-0.2,1.4-0.5c0.4-0.3,0.5-0.8,0.5-1.4
			c0-1.3-0.6-1.9-1.8-1.9h-2.5L211.2,99.8L211.2,99.8z"/>
		<path class="st1" d="M224.5,106.3V93.5h3.2v4.9l4.4-4.9h3.6l-4.5,5.2l4.8,7.5h-3.4l-3.4-5.5l-1.5,1.6v3.9L224.5,106.3L224.5,106.3
			z"/>
		<path class="st1" d="M241.7,106.3V93.5h2.7l5.4,7.6v-7.6h3.2v12.7h-2.8l-5.4-7.6v7.6L241.7,106.3L241.7,106.3z"/>
		<path class="st1" d="M259.2,106.3V93.5h9.4V96h-6.2v2.7h5.5v2.5h-5.5v2.7h6.2v2.5L259.2,106.3L259.2,106.3z"/>
		<path class="st1" d="M277.3,106.3V96h-3.7v-2.5h10.7V96h-3.7v10.3H277.3z"/>
		<path class="st1" d="M298.7,106.3V93.5h6.2c1.3,0,2.2,0.3,2.8,0.9s0.9,1.4,0.9,2.5c0,0.7-0.1,1.3-0.4,1.7c-0.3,0.5-0.6,0.8-1.1,1
			c0.6,0.2,1.1,0.5,1.5,0.9c0.4,0.4,0.6,1.1,0.6,1.9c0,1.2-0.3,2.2-1,2.8c-0.7,0.6-1.6,0.9-2.9,0.9h-6.6V106.3z M300.9,99h3.7
			c0.7,0,1.2-0.2,1.5-0.5c0.3-0.3,0.5-0.8,0.5-1.4c0-0.7-0.2-1.1-0.5-1.5c-0.3-0.3-0.9-0.5-1.8-0.5h-3.5L300.9,99L300.9,99z
			 M300.9,104.7h3.8c0.8,0,1.3-0.2,1.7-0.5s0.5-0.9,0.5-1.7c0-0.7-0.2-1.1-0.5-1.5c-0.3-0.3-1-0.5-1.9-0.5h-3.6V104.7z"/>
		<path class="st1" d="M315.3,106.3V93.5h2.2v11.1h6.5v1.7H315.3z"/>
		<path class="st1" d="M334.8,106.5c-2,0-3.5-0.5-4.5-1.6c-1-1.1-1.5-2.7-1.5-4.9c0-2.3,0.5-4,1.5-5c1-1,2.5-1.6,4.5-1.6
			c2,0,3.5,0.5,4.5,1.6c1,1,1.5,2.7,1.5,5c0,2.2-0.5,3.9-1.5,4.9C338.4,106,336.9,106.5,334.8,106.5z M334.8,104.7
			c1.3,0,2.3-0.4,2.9-1.1s0.9-1.9,0.9-3.6c0-1.8-0.3-3-0.9-3.7s-1.6-1.1-2.9-1.1c-1.3,0-2.3,0.4-2.9,1.1s-0.9,1.9-0.9,3.7
			c0,1.7,0.3,2.9,0.9,3.6C332.6,104.3,333.6,104.7,334.8,104.7z"/>
		<path class="st1" d="M353.1,106.5c-2.1,0-3.7-0.6-4.8-1.7c-1.1-1.1-1.6-2.7-1.6-4.6c0-1.4,0.2-2.6,0.7-3.6s1.2-1.8,2.1-2.3
			c0.9-0.6,2.1-0.8,3.6-0.8c0.7,0,1.4,0.1,2,0.2s1.2,0.3,1.7,0.4V96c-0.5-0.2-1.1-0.4-1.7-0.5s-1.2-0.2-1.9-0.2
			c-1.6,0-2.7,0.4-3.4,1.3c-0.6,0.8-1,2.1-1,3.7c0,1.5,0.4,2.6,1.1,3.4c0.7,0.8,1.8,1.1,3.3,1.1c0.6,0,1.2,0,1.8-0.1
			c0.6-0.1,1.2-0.3,1.7-0.5v1.9c-0.5,0.2-1.1,0.3-1.7,0.4C354.5,106.4,353.8,106.5,353.1,106.5z"/>
		<path class="st1" d="M363.1,106.3V93.5h2.2v5.9l5.4-5.9h2.5l-4.7,5.1l4.9,7.6h-2.3l-3.9-6.2l-1.9,2v4.2L363.1,106.3L363.1,106.3z"
			/>
		<path class="st1" d="M388.3,106.3V93.5h8.9v1.7h-6.7v3.9h6v1.7h-6v3.9h6.7v1.7L388.3,106.3L388.3,106.3z"/>
		<path class="st1" d="M402.4,106.3l4.5-6.3l-4.4-6.4h2.5l3.2,4.7l3.2-4.7h2.5l-4.5,6.4l4.5,6.3h-2.5l-3.3-4.7l-3.3,4.7H402.4z"/>
		<path class="st1" d="M420,106.3V93.5h5.7c1,0,1.8,0.2,2.4,0.6s1.1,0.9,1.4,1.5c0.3,0.6,0.5,1.4,0.5,2.2c0,1.3-0.4,2.3-1.2,3
			c-0.8,0.8-1.8,1.1-3.2,1.1h-3.4v4.3L420,106.3L420,106.3z M422.1,100.3h3c0.9,0,1.5-0.2,1.9-0.7c0.4-0.4,0.7-1.1,0.7-1.8
			c0-0.8-0.2-1.5-0.6-1.9s-1-0.7-1.9-0.7h-3.1V100.3z"/>
		<path class="st1" d="M435.8,106.3V93.5h2.2v11.1h6.5v1.7H435.8z"/>
		<path class="st1" d="M455.3,106.5c-2,0-3.5-0.5-4.5-1.6s-1.5-2.7-1.5-4.9c0-2.3,0.5-4,1.5-5s2.5-1.6,4.5-1.6c2,0,3.5,0.5,4.5,1.6
			c1,1,1.5,2.7,1.5,5c0,2.2-0.5,3.9-1.5,4.9C458.8,106,457.3,106.5,455.3,106.5z M455.3,104.7c1.3,0,2.3-0.4,2.9-1.1
			s0.9-1.9,0.9-3.6c0-1.8-0.3-3-0.9-3.7s-1.6-1.1-2.9-1.1s-2.3,0.4-2.9,1.1s-0.9,1.9-0.9,3.7c0,1.7,0.3,2.9,0.9,3.6
			C453,104.3,454,104.7,455.3,104.7z"/>
		<path class="st1" d="M467.6,106.3V93.5h5.9c1.4,0,2.5,0.4,3.1,1.1c0.7,0.7,1,1.7,1,3c0,0.9-0.2,1.7-0.7,2.3
			c-0.4,0.6-1.1,1.1-1.9,1.3c0.2,0.2,0.4,0.4,0.6,0.6c0.1,0.2,0.3,0.5,0.4,0.8l1.6,3.7h-2.2l-1.6-3.6c-0.1-0.3-0.3-0.6-0.5-0.7
			c-0.2-0.1-0.5-0.2-1-0.2h-2.4v4.5L467.6,106.3L467.6,106.3z M469.7,100h3.1c0.8,0,1.4-0.2,1.8-0.6c0.4-0.4,0.7-1,0.7-1.8
			c0-1.6-0.8-2.4-2.3-2.4h-3.3L469.7,100L469.7,100z"/>
		<path class="st1" d="M483.8,106.3V93.5h8.9v1.7H486v3.9h6v1.7h-6v3.9h6.7v1.7L483.8,106.3L483.8,106.3z"/>
		<path class="st1" d="M498.8,106.3V93.5h5.9c1.4,0,2.5,0.4,3.1,1.1c0.7,0.7,1,1.7,1,3c0,0.9-0.2,1.7-0.7,2.3
			c-0.5,0.6-1.1,1.1-1.9,1.3c0.2,0.2,0.4,0.4,0.6,0.6c0.1,0.2,0.3,0.5,0.4,0.8l1.6,3.7h-2.2l-1.6-3.6c-0.1-0.3-0.3-0.6-0.5-0.7
			c-0.2-0.1-0.5-0.2-1-0.2h-2.4v4.5L498.8,106.3L498.8,106.3z M501,100h3.1c0.8,0,1.4-0.2,1.8-0.6c0.4-0.4,0.7-1,0.7-1.8
			c0-1.6-0.8-2.4-2.3-2.4H501L501,100L501,100z"/>
	</g>
</g>
<g>
	<g>
		<path class="st2" d="M124.6,62.5c0,13-4,25-10.8,35C101.4,96,88.9,95,76.2,94.6v-0.1L48.6,38.7c-2.6-5.2-7.9-8.5-13.8-8.5H8.9
			c11-18,30.8-30.1,53.4-30.1C96.8,0.1,124.6,28.1,124.6,62.5z"/>
		<path class="st3" d="M0,62.5c0,12.9,3.9,24.8,10.6,34.8c13.1-1.5,26.4-2.4,39.8-2.7c-0.9-0.1-1.8-0.7-2.2-1.6L24,42.6
			c-2.8-6-8.9-9.8-15.6-9.8H7.6C2.7,41.6,0,51.7,0,62.5z M14.4,64.8l1.1,3.4c0.1,0.5,0.8,0.4,0.9,0l1-3.4c0.2-0.7,0.7-1.2,1.4-1.4
			l3.4-1.1c0.5-0.1,0.4-0.8,0-0.9l-3.4-1c-0.7-0.2-1.2-0.7-1.4-1.4l-1.1-3.4c-0.1-0.5-0.8-0.4-0.9,0l-1,3.4
			c-0.2,0.7-0.7,1.2-1.4,1.4l-3.4,1.1c-0.5,0.1-0.4,0.8,0,0.9l3.4,1C13.6,63.7,14.2,64.2,14.4,64.8z"/>
		<path class="st4" d="M11.5,97.1c12.8-1.4,25.8-2.2,38.9-2.5c-0.9-0.1-1.8-0.7-2.2-1.6L35.6,66.7C26.1,75.6,18,85.9,11.5,97.1z"/>
		<path class="st4" d="M54.9,51.4c17.7-11.6,38.3-19.2,60.6-21.5c5.8,9.5,9.1,20.6,9.1,32.6c0,13-4,25-10.8,35
			C101.4,96,88.9,95,76.2,94.6v-0.1L54.9,51.4z"/>
		<path class="st5" d="M115.5,29.9c0.7,1.1,1.3,2.2,1.9,3.4c-6.2,1.8-11.4,6.1-14.2,12.1L79.6,94.2c-0.1,0.2-0.2,0.4-0.3,0.5
			c-1,0-1.9-0.1-2.9-0.1v-0.1L65.8,73.4l7.6-18.7c3.5-8.7,9.9-15.7,17.7-20C98.9,32.4,107.1,30.8,115.5,29.9z"/>
		<path class="st2" d="M79.2,94.7c-0.9,0-1.9-0.1-2.8-0.1v-0.1l-9.6-19.3c8.6-4.6,17.8-8.3,27.3-11.1L79.6,94
			C79.5,94.3,79.4,94.5,79.2,94.7z"/>
	</g>
	<g>
		<g>
			<g>
				<path class="st3" d="M161.9,18.1c-0.3,0-0.6,0.1-0.8,0.4c-0.2,0.2-0.2,0.6-0.1,0.9L177.8,67c0.1,0.4,0.5,0.6,0.9,0.6h8
					c0.4,0,0.8-0.3,0.9-0.6l16.8-47.6c0.1-0.3,0.1-0.6-0.1-0.9c-0.2-0.3-0.5-0.4-0.8-0.4h-6.7c-0.4,0-0.8,0.3-0.9,0.6l-13.2,37.9
					l-13.2-37.9c-0.1-0.4-0.5-0.6-0.9-0.6H161.9z"/>
				<path class="st3" d="M269.7,18.1c-0.3,0-0.6,0.2-0.8,0.5c-0.2,0.3-0.2,0.6,0,0.9l16.5,30.4v16.7c0,0.5,0.4,0.9,0.9,0.9h6.3
					c0.5,0,0.9-0.4,0.9-0.9V50L310,19.6c0.2-0.3,0.2-0.6,0-0.9c-0.2-0.3-0.5-0.5-0.8-0.5h-6.9c-0.3,0-0.7,0.2-0.8,0.5l-12,22.7
					l-12-22.8c-0.2-0.3-0.5-0.5-0.8-0.5H269.7z"/>
				<path class="st3" d="M236.6,58.7c8.9,0,16.2-7.3,16.2-16.2s-7.3-16.2-16.2-16.2s-16.2,7.3-16.2,16.2
					C220.3,51.5,227.7,58.7,236.6,58.7z M236.6,67.3c13.7,0,24.7-11.1,24.7-24.7s-11.1-24.7-24.7-24.7c-13.7,0-24.7,11.1-24.7,24.7
					S222.9,67.3,236.6,67.3z"/>
				<path class="st3" d="M391.2,17.5c-4,0-7.6,0.7-10.6,2.2c-3,1.4-5.5,3.4-7.6,5.9l0,0c-2,2.4-3.5,5.2-4.4,8.1l0,0
					c-0.9,3-1.4,6.1-1.4,9.2s0.5,6.2,1.4,9.2l0,0c1,3,2.5,5.7,4.4,8.1l0,0c2,2.4,4.5,4.4,7.5,5.8c3,1.5,6.6,2.2,10.5,2.2
					c4,0,7.7-0.8,10.9-2.6l0,0c3.3-1.8,5.9-4.4,7.9-7.8c2-3.5,3-7.7,3-12.7v-3.3c0-0.5-0.4-0.9-0.9-0.9h-20.2
					c-0.5,0-0.9,0.4-0.9,0.9v5.2c0,0.5,0.4,0.9,0.9,0.9h13c-0.4,3.8-1.7,6.8-3.9,8.9c-2.4,2.4-5.6,3.6-9.8,3.6
					c-2.6,0-4.8-0.5-6.8-1.4c-1.9-1-3.6-2.4-4.9-4c-1.3-1.7-2.3-3.6-2.9-5.8c-0.7-2.2-1-4.4-1-6.7c0-2.2,0.3-4.4,1-6.5l0,0
					c0.7-2.1,1.6-4,2.9-5.7l0,0c1.3-1.7,2.9-3,4.9-4.1c2-1,4.3-1.5,7-1.5c2.3,0,4.2,0.3,5.6,1l0,0c1.5,0.7,2.7,1.4,3.6,2.4l0,0
					c1,0.9,1.7,1.9,2.1,2.8l0,0c0.5,1,0.8,1.7,1,2.3l0.3,1c0.1,0.4,0.5,0.7,0.9,0.7h6.4c0.3,0,0.6-0.1,0.7-0.4
					c0.2-0.2,0.2-0.5,0.2-0.8l-0.3-1.1c-0.1-0.9-0.5-1.9-1-3.1c-0.5-1.3-1.2-2.6-2.2-4c-1-1.5-2.2-2.8-3.7-4.1
					c-1.6-1.3-3.5-2.3-5.8-3.1C396.9,17.9,394.3,17.5,391.2,17.5z"/>
				<path class="st3" d="M427.2,18.1c-0.5,0-0.9,0.4-0.9,0.9v47.6c0,0.5,0.4,0.9,0.9,0.9h30.5c0.5,0,0.9-0.4,0.9-0.9V61
					c0-0.5-0.4-0.9-0.9-0.9h-23.3v-14h20c0.5,0,0.9-0.4,0.9-0.9v-5.6c0-0.5-0.4-0.9-0.9-0.9h-20V25.5h23c0.5,0,0.9-0.4,0.9-0.9v-5.6
					c0-0.5-0.4-0.9-0.9-0.9L427.2,18.1L427.2,18.1z"/>
				<path class="st3" d="M474.2,19.1c-0.5,0-0.9,0.4-0.9,0.9v47.6c0,0.5,0.4,0.9,0.9,0.9h6.3c0.5,0,0.9-0.4,0.9-0.9V48.5h7.2
					L499.7,68c0.2,0.3,0.5,0.5,0.8,0.5h7.2c0.3,0,0.6-0.2,0.8-0.5c0.2-0.3,0.2-0.7,0-0.9l-11.3-19.5c1.9-0.6,3.6-1.6,5-2.8l0,0
					c1.7-1.5,2.9-3.2,3.7-5.1c0.8-1.9,1.2-3.9,1.2-6c0-2.5-0.6-4.9-1.8-7.1c-1.2-2.3-3-4.1-5.4-5.5c-2.4-1.4-5.4-2.1-8.9-2.1
					L474.2,19.1L474.2,19.1z M481.3,41.2V26.4h9.5c1.9,0,3.3,0.4,4.4,1.1c1.2,0.7,2,1.7,2.6,2.8l0,0c0.6,1.1,0.9,2.3,0.9,3.6
					c0,1.2-0.3,2.4-0.9,3.6c-0.6,1.1-1.4,2-2.6,2.7c-1.1,0.7-2.6,1.1-4.4,1.1L481.3,41.2z"/>
				<path class="st3" d="M332.5,18.1c-0.4,0-0.8,0.3-0.9,0.6l-16.8,47.6c-0.1,0.3-0.1,0.6,0.1,0.9c0.2,0.2,0.5,0.4,0.8,0.4h6.7
					c0.4,0,0.8-0.3,0.9-0.6l6-17c0-0.1,0-0.1,0-0.2l7.2-20.6l0.2,0.5l7.1,20.1c0,0.1,0,0.1,0,0.2l5.7,16.1l0.3,0.9
					c0.1,0.4,0.5,0.6,0.9,0.6h6.7c0.3,0,0.6-0.1,0.8-0.4c0.2-0.2,0.2-0.6,0.1-0.9l-16.8-47.6c-0.1-0.4-0.5-0.6-0.9-0.6H332.5z"/>
			</g>
		</g>
	</g>
</g>
</svg>
