<?xml version="1.0" encoding="UTF-8"?><svg id="Layer_1" xmlns="http://www.w3.org/2000/svg" viewBox="0 0 604.38 369.01"><defs><style>.cls-1{fill:#fff;}.cls-1,.cls-2{fill-rule:evenodd;}.cls-3{fill:#1b1b1b;opacity:.56;}.cls-3,.cls-4{isolation:isolate;}.cls-2,.cls-5{fill:#fde8d2;}.cls-4{fill:#121212;opacity:.65;}.cls-6{fill:#ff4a04;}</style></defs><g><path class="cls-5" d="m425.55,122.18c0,25.51-7.77,49.03-21.13,68.56-24.32-2.79-48.83-4.78-73.74-5.58v-.2l-54.41-109.22c-5.18-10.16-15.55-16.74-27.11-16.74h-50.62C220.07,23.52,258.93,0,303.18,0c67.57,0,122.38,54.61,122.38,122.18Z"/><path class="cls-2" d="m181,122.18c0,25.31,7.57,48.63,20.73,68.16,25.71-2.99,51.82-4.78,78.13-5.38-1.79-.2-3.59-1.4-4.38-3.19l-47.44-98.46c-5.58-11.76-17.54-19.13-30.49-19.13h-1.59c-9.57,17.14-14.95,36.87-14.95,58Zm28.3,4.78l2.19,6.58c.2,1,1.59.8,1.79,0l1.99-6.58c.4-1.4,1.4-2.39,2.79-2.79l6.58-2.19c1-.2.8-1.59,0-1.79l-6.58-1.99c-1.4-.4-2.39-1.4-2.79-2.79l-2.19-6.58c-.2-1-1.59-.8-1.79,0l-1.99,6.58c-.4,1.4-1.4,2.39-2.79,2.79l-6.58,2.19c-1,.2-.8,1.59,0,1.79l6.58,1.99c1.4.4,2.39,1.4,2.79,2.79Z"/><path class="cls-6" d="m203.52,190.14c25.11-2.79,50.62-4.58,76.34-5.18-1.79-.2-3.59-1.4-4.38-3.19l-24.71-51.22c-18.34,17.54-34.28,37.47-47.24,59.59Z"/><path class="cls-6" d="m288.63,100.65c34.88-22.72,75.34-37.67,118.79-42.25,11.36,18.54,17.94,40.46,17.94,63.98,0,25.51-7.77,49.03-21.13,68.56-24.32-2.79-48.83-4.78-73.74-5.58v-.2l-41.86-84.51Z"/><path class="cls-4" d="m407.42,58.2c1.4,2.19,2.59,4.38,3.79,6.58-12.16,3.59-22.32,11.96-28.1,23.72l-46.04,95.87c-.2.4-.4.8-.6,1-1.99,0-3.79-.2-5.78-.2v-.2l-20.73-41.46,14.95-36.67c6.98-16.94,19.33-30.69,34.68-39.06,15.55-4.58,31.49-7.77,47.83-9.57Z"/><path class="cls-3" d="m336.26,185.56c-1.79-.2-3.79-.2-5.58-.2v-.2l-18.93-37.87c16.94-8.97,34.88-16.34,53.61-21.72l-28.1,58.6c-.4.4-.6,1-1,1.4Z"/></g><g><path class="cls-1" d="m1.68,282.45c-.52,0-1.04.17-1.39.7-.35.35-.35,1.04-.17,1.56l29.2,82.74c.17.7.87,1.04,1.56,1.04h13.73c.7,0,1.39-.52,1.56-1.04l29.2-82.91c.17-.52.17-1.04-.17-1.56-.35-.35-.87-.7-1.39-.7h-11.65c-.7,0-1.39.52-1.56,1.04l-22.94,65.7-22.94-65.7c-.17-.7-.87-1.04-1.56-1.04H1.68v.17Z"/><path class="cls-1" d="m189.22,282.45c-.52,0-1.04.35-1.39.87-.35.52-.35,1.04,0,1.56l28.68,53.01v29.03c0,.87.7,1.56,1.56,1.56h10.78c.87,0,1.56-.7,1.56-1.56v-29.2l28.68-53.01c.35-.52.35-1.04,0-1.56s-.87-.87-1.39-.87h-11.99c-.52,0-1.22.35-1.39.87l-20.86,39.46-21.03-39.46c-.35-.52-.87-.87-1.39-.87h-11.82v.17Z"/><path class="cls-1" d="m131.52,353.01c15.64,0,28.16-12.69,28.16-28.16s-12.69-28.16-28.16-28.16-28.16,12.69-28.16,28.16,12.51,28.16,28.16,28.16Zm0,14.77c23.81,0,43.11-19.29,43.11-43.11s-19.29-42.93-43.11-42.93-43.11,19.29-43.11,43.11,19.29,42.93,43.11,42.93Z"/><path class="cls-1" d="m400.24,281.23c-6.95,0-13.21,1.22-18.42,3.82-5.21,2.43-9.56,5.91-13.04,10.08h0c-3.48,4.17-5.91,8.86-7.65,14.08h0c-1.56,5.21-2.43,10.6-2.43,15.99s.87,10.78,2.43,15.99h0c1.74,5.21,4.17,9.91,7.65,14.08h0c3.48,4.17,7.82,7.65,13.04,10.08s11.3,3.65,18.25,3.65,13.21-1.39,18.95-4.35h0c5.74-3.13,10.26-7.65,13.56-13.56,3.48-5.91,5.21-13.38,5.21-22.07v-5.74c0-.87-.7-1.56-1.56-1.56h-35.11c-.87,0-1.56.7-1.56,1.56v9.56c0,.87.7,1.56,1.56,1.56h22.77c-.7,6.6-2.95,11.65-6.78,15.47-4.17,4.17-9.73,6.26-17.03,6.26-4.52,0-8.34-.87-11.65-2.43-3.3-1.74-6.26-4-8.52-6.95-2.26-2.95-4-6.26-5.04-9.91-1.22-3.82-1.74-7.65-1.74-11.65s.52-7.65,1.74-11.3h0c1.22-3.65,2.78-6.95,5.04-9.91h0c2.26-2.95,5.04-5.21,8.52-6.95,3.3-1.74,7.47-2.61,12.17-2.61,4,0,7.3.52,9.73,1.74h0c2.61,1.04,4.69,2.43,6.26,4.17h0c1.74,1.56,2.95,3.3,3.65,4.87h0c.87,1.74,1.39,2.95,1.56,4l.52,1.74c.17.7.87,1.22,1.56,1.22h11.12c.52,0,1.04-.17,1.22-.7.35-.35.35-.87.35-1.39l-.52-1.91c-.17-1.56-.87-3.3-1.56-5.39-.87-2.26-2.09-4.52-3.82-6.95-1.74-2.61-3.82-4.87-6.43-7.13-2.78-2.26-6.08-4-9.91-5.39-4-1.39-8.69-2.09-14.08-2.09Z"/><path class="cls-1" d="m462.81,282.45c-.87,0-1.56.7-1.56,1.56v82.74c0,.87.7,1.56,1.56,1.56h53.01c.87,0,1.56-.7,1.56-1.56v-9.56c0-.87-.7-1.56-1.56-1.56h-40.5v-24.68h34.76c.87,0,1.56-.7,1.56-1.56v-9.56c0-.87-.7-1.56-1.56-1.56h-34.76v-22.94h39.98c.87,0,1.56-.7,1.56-1.56v-9.56c0-.87-.7-1.56-1.56-1.56h-52.49v-.17Z"/><path class="cls-1" d="m544.5,282.45c-.87,0-1.56.7-1.56,1.56v82.74c0,.87.7,1.56,1.56,1.56h10.95c.87,0,1.56-.7,1.56-1.56v-33.2h12.51l19.47,34.07c.35.52.87.87,1.39.87h12.34c.52,0,1.04-.35,1.39-.87.35-.52.35-1.04,0-1.56l-19.81-33.89c3.3-1.04,6.26-2.61,8.52-4.87h0c2.78-2.61,5.04-5.56,6.43-8.86,1.39-3.3,2.09-6.78,2.09-10.43,0-4.35-1.04-8.34-3.13-12.34-2.09-4-5.21-7.13-9.39-9.56s-9.39-3.65-15.47-3.65h-28.85Zm12.51,38.59v-25.72h16.51c3.13,0,5.74.7,7.65,1.91,1.91,1.22,3.48,2.95,4.52,4.87h0c1.04,1.91,1.56,4,1.56,6.26,0,2.09-.52,4.17-1.56,6.26-1.04,1.91-2.43,3.48-4.52,4.69-1.91,1.22-4.35,1.91-7.65,1.91h-16.51v-.17Z"/><path class="cls-1" d="m298.21,282.45c-.7,0-1.39.52-1.56,1.04l-29.2,82.74c-.17.52-.17,1.04.17,1.56.35.35.87.7,1.39.7h11.65c.7,0,1.39-.52,1.56-1.04l10.26-29.55v-.35l12.51-35.81.35.87,12.17,34.94v.35l9.73,27.98.52,1.56c.17.7.87,1.04,1.56,1.04h11.65c.52,0,1.04-.17,1.39-.7.35-.35.35-1.04.17-1.56l-29.03-82.74c-.17-.7-.87-1.04-1.56-1.04h-13.73Z"/></g></svg>