<?xml version="1.0" encoding="UTF-8"?><svg id="Layer_1" xmlns="http://www.w3.org/2000/svg" viewBox="0 0 615 435.84"><defs><style>.cls-1{fill:#26296e;}.cls-1,.cls-2{opacity:.6;}.cls-1,.cls-3{isolation:isolate;}.cls-4{fill-rule:evenodd;}.cls-4,.cls-5,.cls-3{fill:#1b1b50;}.cls-6{fill:#ff4a04;}.cls-3{opacity:.65;}</style></defs><g><path class="cls-5" d="m429.16,121.66c0,25.28-7.7,48.78-20.94,68.34-24.1-2.96-48.59-4.74-73.47-5.53v-.2l-54.12-108.83c-5.14-10.27-15.41-16.59-26.86-16.59h-50.36C224.75,23.5,263.46,0,307.5,0c67.15,0,121.66,54.51,121.66,121.66Z"/><path class="cls-4" d="m185.84,121.66c0,25.08,7.51,48.39,20.54,67.74,25.48-2.96,51.55-4.74,77.62-5.33-1.78-.2-3.56-1.38-4.35-3.16l-47.01-98.16c-5.53-11.65-17.38-19.16-30.42-19.16h-1.58c-9.48,17.38-14.81,37.13-14.81,58.07Zm28.24,4.74l2.17,6.52c.2.99,1.58.79,1.78,0l1.98-6.52c.4-1.38,1.38-2.37,2.77-2.77l6.52-2.17c.99-.2.79-1.58,0-1.78l-6.52-1.98c-1.38-.4-2.37-1.38-2.77-2.77l-2.17-6.52c-.2-.99-1.58-.79-1.78,0l-1.98,6.52c-.4,1.38-1.38,2.37-2.77,2.77l-6.52,1.98c-.99.2-.79,1.58,0,1.78l6.52,1.98c1.38.59,2.37,1.58,2.77,2.96Z"/><path class="cls-6" d="m208.35,189.21c25.08-2.77,50.36-4.54,75.84-5.14-1.78-.2-3.56-1.38-4.35-3.16l-24.49-51.15c-18.37,17.58-34.17,37.53-47.01,59.45Z"/><path class="cls-6" d="m292.88,100.14c34.56-22.71,74.85-37.53,118.31-42.07,11.46,18.57,17.97,40.29,17.97,63.6,0,25.28-7.7,48.78-20.94,68.34-24.1-2.96-48.59-4.74-73.47-5.53v-.2l-41.87-84.14Z"/><path class="cls-3" d="m411.19,58.07c1.38,2.17,2.57,4.35,3.75,6.52-12.05,3.56-22.32,11.85-27.85,23.5l-45.82,95.4c-.2.4-.4.79-.59.99-1.98,0-3.75-.2-5.73-.2v-.2l-20.74-41.28,14.81-36.54c6.91-16.99,19.36-30.42,34.56-38.91,15.41-4.54,31.21-7.7,47.6-9.28Z"/><path class="cls-5" d="m340.48,184.47c-1.78,0-3.75-.2-5.53-.2v-.2l-18.76-37.72c16.79-9.09,34.76-16.2,53.33-21.53l-28.24,58.46c-.2.4-.59.79-.79,1.19Z"/></g><g><path class="cls-4" d="m1.69,280.81c-.53,0-1.05.18-1.4.7-.35.35-.35,1.05-.18,1.58l29.61,83.74c.18.7.88,1.05,1.58,1.05h14.01c.7,0,1.4-.53,1.58-1.05l29.61-83.74c.18-.53.18-1.05-.18-1.58-.35-.35-.88-.7-1.4-.7h-11.74c-.7,0-1.4.53-1.58,1.05l-23.3,66.74-23.3-66.74c-.18-.7-.88-1.05-1.58-1.05H1.69Z"/><path class="cls-4" d="m191.76,280.81c-.53,0-1.05.35-1.4.88-.35.53-.35,1.05,0,1.58l29.08,53.61v29.43c0,.88.7,1.58,1.58,1.58h11.04c.88,0,1.58-.7,1.58-1.58v-29.43l29.08-53.61c.35-.53.35-1.05,0-1.58s-.88-.88-1.4-.88h-12.09c-.53,0-1.23.35-1.4.88l-21.2,39.94-21.37-39.94c-.35-.53-.88-.88-1.4-.88h-12.09Z"/><path class="cls-4" d="m133.25,352.46c15.77,0,28.55-12.79,28.55-28.55s-12.61-28.73-28.55-28.73-28.55,12.79-28.55,28.55,12.79,28.73,28.55,28.73Zm0,14.89c24.17,0,43.62-19.62,43.62-43.62s-19.45-43.62-43.62-43.62-43.62,19.62-43.62,43.62,19.62,43.62,43.62,43.62Z"/><path class="cls-4" d="m405.83,279.76c-7.01,0-13.31,1.23-18.74,3.85-5.26,2.45-9.63,5.96-13.31,10.34h0c-3.5,4.2-6.13,9.11-7.71,14.36h0c-1.58,5.26-2.45,10.69-2.45,16.29s.88,10.86,2.45,16.29h0c1.75,5.26,4.38,9.99,7.71,14.36h0c3.5,4.2,7.88,7.71,13.14,10.16,5.26,2.63,11.56,3.85,18.57,3.85s13.49-1.4,19.27-4.55h0c5.78-3.15,10.34-7.71,13.84-13.66,3.5-6.13,5.26-13.49,5.26-22.42v-5.78c0-.88-.7-1.58-1.58-1.58h-35.56c-.88,0-1.58.7-1.58,1.58v9.11c0,.88.7,1.58,1.58,1.58h23.12c-.7,6.66-2.98,11.91-6.83,15.77-4.2,4.2-9.81,6.31-17.34,6.31-4.55,0-8.41-.88-11.74-2.45-3.33-1.75-6.31-4.2-8.58-7.01-2.28-2.98-4.03-6.31-5.08-10.16-1.23-3.85-1.75-7.71-1.75-11.74s.53-7.71,1.75-11.39h0c1.23-3.68,2.8-7.01,5.08-9.99h0c2.28-2.98,5.08-5.26,8.58-7.18,3.5-1.75,7.53-2.63,12.26-2.63,4.03,0,7.36.53,9.81,1.75h0c2.63,1.23,4.73,2.45,6.31,4.2h0c1.75,1.58,2.98,3.33,3.68,4.91h0c.88,1.75,1.4,2.98,1.75,4.03l.53,1.75c.18.7.88,1.23,1.58,1.23h11.21c.53,0,1.05-.18,1.23-.7.35-.35.35-.88.35-1.4l-.53-1.93c-.18-1.58-.88-3.33-1.75-5.43-.88-2.28-2.1-4.55-3.85-7.01-1.75-2.63-3.85-4.91-6.48-7.18-2.8-2.28-6.13-4.03-10.16-5.43-3.85-1.4-8.58-2.1-14.01-2.1Z"/><path class="cls-4" d="m469.25,280.81c-.88,0-1.58.7-1.58,1.58v83.74c0,.88.7,1.58,1.58,1.58h53.78c.88,0,1.58-.7,1.58-1.58v-9.63c0-.88-.7-1.58-1.58-1.58h-40.99v-24.88h35.21c.88,0,1.58-.7,1.58-1.58v-9.81c0-.88-.7-1.58-1.58-1.58h-35.21v-23.12h40.47c.88,0,1.58-.7,1.58-1.58v-9.81c0-.88-.7-1.58-1.58-1.58h-53.26v-.18Z"/><path class="cls-4" d="m551.93,282.38c-.88,0-1.58.7-1.58,1.58v83.74c0,.88.7,1.58,1.58,1.58h11.04c.88,0,1.58-.7,1.58-1.58v-33.46h12.61l19.97,34.34c.35.53.88.88,1.4.88h12.61c.53,0,1.05-.35,1.4-.88.35-.53.35-1.23,0-1.58l-20.15-34.51c3.33-1.05,6.31-2.8,8.76-4.91h0c2.98-2.63,5.08-5.61,6.48-8.93,1.4-3.33,2.1-6.83,2.1-10.51,0-4.38-1.05-8.58-3.15-12.44-2.1-4.03-5.26-7.18-9.46-9.63s-9.46-3.68-15.77-3.68h-29.43Zm12.79,39.07v-26.1h16.82c3.33,0,5.78.7,7.71,1.93,2.1,1.23,3.5,2.98,4.55,4.91h0c1.05,1.93,1.58,4.03,1.58,6.31,0,2.1-.53,4.2-1.58,6.31-1.05,1.93-2.45,3.5-4.55,4.73-1.93,1.23-4.55,1.93-7.71,1.93h-16.82Z"/><path class="cls-4" d="m302.3,280.81c-.7,0-1.4.53-1.58,1.05l-29.61,83.74c-.18.53-.18,1.05.18,1.58.35.35.88.7,1.4.7h11.74c.7,0,1.4-.53,1.58-1.05l10.51-29.96v-.35l12.61-36.26.35.88,12.44,35.39v.35l9.99,28.38.53,1.58c.18.7.88,1.05,1.58,1.05h11.74c.53,0,1.05-.18,1.4-.7.35-.35.35-1.05.18-1.58l-29.61-83.74c-.18-.7-.88-1.05-1.58-1.05h-13.84Z"/><g class="cls-2"><path class="cls-1" d="m12.2,435.84c-1.4,0-2.8-.18-4.2-.35-1.23-.18-2.45-.53-3.33-.88v-4.73c1.05.53,2.1.88,3.33,1.05,1.23.35,2.45.35,3.5.35,1.4,0,2.45-.18,3.15-.35.7-.18,1.05-.88,1.05-1.58,0-.53-.18-1.05-.53-1.4-.35-.35-.88-.7-1.58-.88-.7-.35-1.75-.53-2.98-1.05-1.58-.53-2.8-1.05-3.68-1.58s-1.58-1.23-1.93-2.1c-.35-.88-.53-1.75-.53-2.98,0-2.1.7-3.68,2.28-4.91,1.58-1.05,3.85-1.75,6.83-1.75,1.23,0,2.63.18,3.85.35s2.28.35,2.98.7v4.73c-1.05-.35-1.93-.7-2.98-.88-1.05-.18-1.93-.35-2.98-.35-1.23,0-2.28.18-2.98.35s-1.23.7-1.23,1.58c0,.53.18.88.35,1.23.35.35.7.53,1.4.7.7.18,1.58.53,2.8.88,1.75.53,3.15,1.05,4.2,1.75,1.05.7,1.58,1.4,1.93,2.28.35.88.53,1.93.53,2.98,0,1.93-.7,3.5-2.28,4.73-1.58,1.4-3.85,2.1-7.01,2.1Z"/><path class="cls-1" d="m36.03,435.49v-18.04h-6.48v-4.38h18.74v4.38h-6.48v18.04h-5.78Z"/><path class="cls-1" d="m54.42,435.49l8.58-22.25h5.96l8.58,22.25h-5.96l-1.93-5.08h-7.53l-1.93,5.08h-5.78Zm8.58-9.28h5.96l-2.98-7.71-2.98,7.71Z"/><path class="cls-1" d="m87.53,435.49v-22.42h11.21c2.63,0,4.55.7,5.78,2.1,1.23,1.4,1.93,3.33,1.93,5.61,0,1.58-.35,2.8-1.23,4.03-.7,1.05-1.75,1.93-3.15,2.45.35.18.53.53.7.88.18.35.35.7.7,1.23l2.63,5.96h-5.78l-2.45-5.61c-.18-.53-.53-.88-.88-1.05s-.7-.35-1.4-.35h-2.63v7.01h-5.43v.18Zm5.61-11.39h4.2c1.05,0,1.93-.35,2.45-.88.7-.53.88-1.4.88-2.45,0-2.28-1.05-3.33-3.15-3.33h-4.38v6.66h0Z"/><path class="cls-1" d="m116.61,435.49v-22.42h5.61v8.58l7.71-8.58h6.31l-7.88,9.11,8.41,13.14h-5.96l-5.96-9.63-2.63,2.8v6.83h-5.61v.18Z"/><path class="cls-1" d="m146.74,435.49v-22.42h4.73l9.46,13.31v-13.31h5.61v22.25h-4.91l-9.46-13.31v13.31h-5.43v.18Z"/><path class="cls-1" d="m177.4,435.49v-22.42h16.47v4.38h-10.86v4.73h9.63v4.38h-9.63v4.73h10.86v4.38h-16.47v-.18Z"/><path class="cls-1" d="m209.11,435.49v-18.04h-6.48v-4.38h18.74v4.38h-6.48v18.04h-5.78Z"/><path class="cls-1" d="m246.59,435.49v-22.42h10.86c2.28,0,3.85.53,4.91,1.58s1.58,2.45,1.58,4.38c0,1.23-.18,2.28-.7,2.98-.53.88-1.05,1.4-1.93,1.75,1.05.35,1.93.88,2.63,1.58s1.05,1.93,1.05,3.33c0,2.1-.53,3.85-1.75,4.91-1.23,1.05-2.8,1.58-5.08,1.58h-11.56v.35Zm3.85-12.79h6.48c1.23,0,2.1-.35,2.63-.88s.88-1.4.88-2.45c0-1.23-.35-1.93-.88-2.63-.53-.53-1.58-.88-3.15-.88h-6.13v6.83h.18Zm0,9.99h6.66c1.4,0,2.28-.35,2.98-.88.7-.53.88-1.58.88-2.98,0-1.23-.35-1.93-.88-2.63-.53-.53-1.75-.88-3.33-.88h-6.31v7.36Z"/><path class="cls-1" d="m275.67,435.49v-22.42h3.85v19.45h11.39v2.98h-15.24Z"/><path class="cls-1" d="m310.01,435.84c-3.5,0-6.13-.88-7.88-2.8s-2.63-4.73-2.63-8.58.88-7.01,2.63-8.76,4.38-2.8,7.88-2.8,6.13.88,7.88,2.8c1.75,1.75,2.63,4.73,2.63,8.76s-.88,6.83-2.63,8.58c-1.58,1.93-4.2,2.8-7.88,2.8Zm0-3.15c2.28,0,4.03-.7,5.08-1.93s1.58-3.33,1.58-6.31c0-3.15-.53-5.26-1.58-6.48s-2.8-1.93-5.08-1.93-4.03.7-5.08,1.93-1.58,3.33-1.58,6.48c0,2.98.53,5.08,1.58,6.31,1.05,1.23,2.8,1.93,5.08,1.93Z"/><path class="cls-1" d="m342.07,435.84c-3.68,0-6.48-1.05-8.41-2.98-1.93-1.93-2.8-4.73-2.8-8.06,0-2.45.35-4.55,1.23-6.31s2.1-3.15,3.68-4.03c1.58-1.05,3.68-1.4,6.31-1.4,1.23,0,2.45.18,3.5.35s2.1.53,2.98.7v3.33c-.88-.35-1.93-.7-2.98-.88s-2.1-.35-3.33-.35c-2.8,0-4.73.7-5.96,2.28-1.05,1.4-1.75,3.68-1.75,6.48,0,2.63.7,4.55,1.93,5.96s3.15,1.93,5.78,1.93c1.05,0,2.1,0,3.15-.18,1.05-.18,2.1-.53,2.98-.88v3.33c-.88.35-1.93.53-2.98.7-.88-.18-2.1,0-3.33,0Z"/><path class="cls-1" d="m359.59,435.49v-22.42h3.85v10.34l9.46-10.34h4.38l-8.23,8.93,8.58,13.31h-4.03l-6.83-10.86-3.33,3.5v7.36h-3.85v.18Z"/><path class="cls-1" d="m403.73,435.49v-22.42h15.59v2.98h-11.74v6.83h10.51v2.98h-10.51v6.83h11.74v2.98h-15.59v-.18Z"/><path class="cls-1" d="m428.43,435.49l7.88-11.04-7.71-11.21h4.38l5.61,8.23,5.61-8.23h4.38l-7.88,11.21,7.88,11.04h-4.38l-5.78-8.23-5.78,8.23h-4.2Z"/><path class="cls-1" d="m459.26,435.49v-22.42h9.99c1.75,0,3.15.35,4.2,1.05s1.93,1.58,2.45,2.63.88,2.45.88,3.85c0,2.28-.7,4.03-2.1,5.26-1.4,1.4-3.15,1.93-5.61,1.93h-5.96v7.53h-3.85v.18Zm3.68-10.51h5.26c1.58,0,2.63-.35,3.33-1.23.7-.7,1.23-1.93,1.23-3.15,0-1.4-.35-2.63-1.05-3.33s-1.75-1.23-3.33-1.23h-5.43v8.93Z"/><path class="cls-1" d="m486.94,435.49v-22.42h3.85v19.45h11.39v2.98h-15.24Z"/><path class="cls-1" d="m521.28,435.84c-3.5,0-6.13-.88-7.88-2.8s-2.63-4.73-2.63-8.58.88-7.01,2.63-8.76,4.38-2.8,7.88-2.8,6.13.88,7.88,2.8c1.75,1.75,2.63,4.73,2.63,8.76s-.88,6.83-2.63,8.58c-1.75,1.93-4.38,2.8-7.88,2.8Zm0-3.15c2.28,0,4.03-.7,5.08-1.93s1.58-3.33,1.58-6.31c0-3.15-.53-5.26-1.58-6.48s-2.8-1.93-5.08-1.93-4.03.7-5.08,1.93-1.58,3.33-1.58,6.48c0,2.98.53,5.08,1.58,6.31,1.05,1.23,2.8,1.93,5.08,1.93Z"/><path class="cls-1" d="m542.83,435.49v-22.42h10.34c2.45,0,4.38.7,5.43,1.93,1.23,1.23,1.75,2.98,1.75,5.26,0,1.58-.35,2.98-1.23,4.03-.7,1.05-1.93,1.93-3.33,2.28.35.35.7.7,1.05,1.05.18.35.53.88.7,1.4l2.8,6.48h-3.85l-2.8-6.31c-.18-.53-.53-1.05-.88-1.23s-.88-.35-1.75-.35h-4.2v7.88h-4.03Zm3.68-11.04h5.43c1.4,0,2.45-.35,3.15-1.05s1.23-1.75,1.23-3.15c0-2.8-1.4-4.2-4.03-4.2h-5.78v8.41h0Z"/><path class="cls-1" d="m571.2,435.49v-22.42h15.59v2.98h-11.74v6.83h10.51v2.98h-10.51v6.83h11.74v2.98h-15.59v-.18Z"/><path class="cls-1" d="m597.48,435.49v-22.42h10.34c2.45,0,4.38.7,5.43,1.93,1.23,1.23,1.75,2.98,1.75,5.26,0,1.58-.35,2.98-1.23,4.03s-1.93,1.93-3.33,2.28c.35.35.7.7,1.05,1.05.18.35.53.88.7,1.4l2.8,6.48h-3.85l-2.8-6.31c-.18-.53-.53-1.05-.88-1.23s-.88-.35-1.75-.35h-4.2v7.88h-4.03Zm3.85-11.04h5.43c1.4,0,2.45-.35,3.15-1.05s1.23-1.75,1.23-3.15c0-2.8-1.4-4.2-4.03-4.2h-5.78v8.41h0Z"/></g></g></svg>