<?xml version="1.0" encoding="UTF-8"?><svg id="Layer_1" xmlns="http://www.w3.org/2000/svg" viewBox="0 0 612.81 369.45"><defs><style>.cls-1{fill-rule:evenodd;}.cls-1,.cls-2,.cls-3{fill:#1b1b50;}.cls-4{fill:#ff4a04;}.cls-3{isolation:isolate;opacity:.65;}</style></defs><g><path class="cls-2" d="m429.16,121.66c0,25.28-7.7,48.78-20.94,68.34-24.1-2.96-48.59-4.74-73.47-5.53v-.2l-54.12-108.83c-5.14-10.27-15.41-16.59-26.86-16.59h-50.36C224.75,23.5,263.46,0,307.5,0c67.15,0,121.66,54.51,121.66,121.66Z"/><path class="cls-1" d="m185.84,121.66c0,25.08,7.51,48.39,20.54,67.74,25.48-2.96,51.55-4.74,77.62-5.33-1.78-.2-3.56-1.38-4.35-3.16l-47.01-98.16c-5.53-11.65-17.38-19.16-30.42-19.16h-1.58c-9.48,17.38-14.81,37.13-14.81,58.07Zm28.24,4.74l2.17,6.52c.2.99,1.58.79,1.78,0l1.98-6.52c.4-1.38,1.38-2.37,2.77-2.77l6.52-2.17c.99-.2.79-1.58,0-1.78l-6.52-1.98c-1.38-.4-2.37-1.38-2.77-2.77l-2.17-6.52c-.2-.99-1.58-.79-1.78,0l-1.98,6.52c-.4,1.38-1.38,2.37-2.77,2.77l-6.52,1.98c-.99.2-.79,1.58,0,1.78l6.52,1.98c1.38.59,2.37,1.58,2.77,2.96Z"/><path class="cls-4" d="m208.35,189.21c25.08-2.77,50.36-4.54,75.84-5.14-1.78-.2-3.56-1.38-4.35-3.16l-24.49-51.15c-18.37,17.58-34.17,37.53-47.01,59.45Z"/><path class="cls-4" d="m292.88,100.14c34.56-22.71,74.85-37.53,118.31-42.07,11.46,18.57,17.97,40.29,17.97,63.6,0,25.28-7.7,48.78-20.94,68.34-24.1-2.96-48.59-4.74-73.47-5.53v-.2l-41.87-84.14Z"/><path class="cls-3" d="m411.19,58.07c1.38,2.17,2.57,4.35,3.75,6.52-12.05,3.56-22.32,11.85-27.85,23.5l-45.82,95.4c-.2.4-.4.79-.59.99-1.98,0-3.75-.2-5.73-.2v-.2l-20.74-41.28,14.81-36.54c6.91-16.99,19.36-30.42,34.56-38.91,15.41-4.54,31.21-7.7,47.6-9.28Z"/><path class="cls-2" d="m340.48,184.47c-1.78,0-3.75-.2-5.53-.2v-.2l-18.76-37.72c16.79-9.09,34.76-16.2,53.33-21.53l-28.24,58.46c-.2.4-.59.79-.79,1.19Z"/></g><g><path class="cls-1" d="m1.69,280.81c-.53,0-1.05.18-1.4.7-.35.35-.35,1.05-.18,1.58l29.61,83.74c.18.7.88,1.05,1.58,1.05h14.01c.7,0,1.4-.53,1.58-1.05l29.61-83.74c.18-.53.18-1.05-.18-1.58-.35-.35-.88-.7-1.4-.7h-11.74c-.7,0-1.4.53-1.58,1.05l-23.3,66.74-23.3-66.74c-.18-.7-.88-1.05-1.58-1.05H1.69Z"/><path class="cls-1" d="m191.76,280.81c-.53,0-1.05.35-1.4.88-.35.53-.35,1.05,0,1.58l29.08,53.61v29.43c0,.88.7,1.58,1.58,1.58h11.04c.88,0,1.58-.7,1.58-1.58v-29.43l29.08-53.61c.35-.53.35-1.05,0-1.58s-.88-.88-1.4-.88h-12.09c-.53,0-1.23.35-1.4.88l-21.2,39.94-21.37-39.94c-.35-.53-.88-.88-1.4-.88h-12.09Z"/><path class="cls-1" d="m133.25,352.46c15.77,0,28.55-12.79,28.55-28.55s-12.61-28.73-28.55-28.73-28.55,12.79-28.55,28.55,12.79,28.73,28.55,28.73Zm0,14.89c24.17,0,43.62-19.62,43.62-43.62s-19.45-43.62-43.62-43.62-43.62,19.62-43.62,43.62,19.62,43.62,43.62,43.62Z"/><path class="cls-1" d="m405.83,279.76c-7.01,0-13.31,1.23-18.74,3.85-5.26,2.45-9.63,5.96-13.31,10.34h0c-3.5,4.2-6.13,9.11-7.71,14.36h0c-1.58,5.26-2.45,10.69-2.45,16.29s.88,10.86,2.45,16.29h0c1.75,5.26,4.38,9.99,7.71,14.36h0c3.5,4.2,7.88,7.71,13.14,10.16,5.26,2.63,11.56,3.85,18.57,3.85s13.49-1.4,19.27-4.55h0c5.78-3.15,10.34-7.71,13.84-13.66,3.5-6.13,5.26-13.49,5.26-22.42v-5.78c0-.88-.7-1.58-1.58-1.58h-35.56c-.88,0-1.58.7-1.58,1.58v9.11c0,.88.7,1.58,1.58,1.58h23.12c-.7,6.66-2.98,11.91-6.83,15.77-4.2,4.2-9.81,6.31-17.34,6.31-4.55,0-8.41-.88-11.74-2.45-3.33-1.75-6.31-4.2-8.58-7.01-2.28-2.98-4.03-6.31-5.08-10.16-1.23-3.85-1.75-7.71-1.75-11.74s.53-7.71,1.75-11.39h0c1.23-3.68,2.8-7.01,5.08-9.99h0c2.28-2.98,5.08-5.26,8.58-7.18,3.5-1.75,7.53-2.63,12.26-2.63,4.03,0,7.36.53,9.81,1.75h0c2.63,1.23,4.73,2.45,6.31,4.2h0c1.75,1.58,2.98,3.33,3.68,4.91h0c.88,1.75,1.4,2.98,1.75,4.03l.53,1.75c.18.7.88,1.23,1.58,1.23h11.21c.53,0,1.05-.18,1.23-.7.35-.35.35-.88.35-1.4l-.53-1.93c-.18-1.58-.88-3.33-1.75-5.43-.88-2.28-2.1-4.55-3.85-7.01-1.75-2.63-3.85-4.91-6.48-7.18-2.8-2.28-6.13-4.03-10.16-5.43-3.85-1.4-8.58-2.1-14.01-2.1Z"/><path class="cls-1" d="m469.25,280.81c-.88,0-1.58.7-1.58,1.58v83.74c0,.88.7,1.58,1.58,1.58h53.78c.88,0,1.58-.7,1.58-1.58v-9.63c0-.88-.7-1.58-1.58-1.58h-40.99v-24.88h35.21c.88,0,1.58-.7,1.58-1.58v-9.81c0-.88-.7-1.58-1.58-1.58h-35.21v-23.12h40.47c.88,0,1.58-.7,1.58-1.58v-9.81c0-.88-.7-1.58-1.58-1.58h-53.26v-.18Z"/><path class="cls-1" d="m551.93,282.38c-.88,0-1.58.7-1.58,1.58v83.74c0,.88.7,1.58,1.58,1.58h11.04c.88,0,1.58-.7,1.58-1.58v-33.46h12.61l19.97,34.34c.35.53.88.88,1.4.88h12.61c.53,0,1.05-.35,1.4-.88.35-.53.35-1.23,0-1.58l-20.15-34.51c3.33-1.05,6.31-2.8,8.76-4.91h0c2.98-2.63,5.08-5.61,6.48-8.93,1.4-3.33,2.1-6.83,2.1-10.51,0-4.38-1.05-8.58-3.15-12.44-2.1-4.03-5.26-7.18-9.46-9.63s-9.46-3.68-15.77-3.68h-29.43Zm12.79,39.07v-26.1h16.82c3.33,0,5.78.7,7.71,1.93,2.1,1.23,3.5,2.98,4.55,4.91h0c1.05,1.93,1.58,4.03,1.58,6.31,0,2.1-.53,4.2-1.58,6.31-1.05,1.93-2.45,3.5-4.55,4.73-1.93,1.23-4.55,1.93-7.71,1.93h-16.82Z"/><path class="cls-1" d="m302.3,280.81c-.7,0-1.4.53-1.58,1.05l-29.61,83.74c-.18.53-.18,1.05.18,1.58.35.35.88.7,1.4.7h11.74c.7,0,1.4-.53,1.58-1.05l10.51-29.96v-.35l12.61-36.26.35.88,12.44,35.39v.35l9.99,28.38.53,1.58c.18.7.88,1.05,1.58,1.05h11.74c.53,0,1.05-.18,1.4-.7.35-.35.35-1.05.18-1.58l-29.61-83.74c-.18-.7-.88-1.05-1.58-1.05h-13.84Z"/></g></svg>