<?xml version="1.0" encoding="UTF-8"?><svg id="Layer_1" xmlns="http://www.w3.org/2000/svg" viewBox="0 0 606.55 435.23"><defs><style>.cls-1{fill:#e84d1e;}.cls-2,.cls-3{fill-rule:evenodd;}.cls-2,.cls-4{fill:#fff;}.cls-5{fill:#533228;}.cls-3,.cls-6{fill:#fde8d2;}.cls-4{isolation:isolate;}.cls-4,.cls-7{opacity:.6;}.cls-8{fill:#332723;}</style></defs><g><path class="cls-6" d="m425.55,122.18c0,25.51-7.77,49.03-21.13,68.56-24.32-2.79-48.83-4.78-73.74-5.58v-.2l-54.41-109.22c-5.18-10.16-15.55-16.74-27.11-16.74h-50.62C220.07,23.52,258.93,0,303.18,0c67.57,0,122.38,54.61,122.38,122.18Z"/><path class="cls-3" d="m181,122.18c0,25.31,7.57,48.63,20.73,68.16,25.71-2.99,51.82-4.78,78.13-5.38-1.79-.2-3.59-1.4-4.38-3.19l-47.44-98.46c-5.58-11.76-17.54-19.13-30.49-19.13h-1.59c-9.57,17.14-14.95,36.87-14.95,58Zm28.3,4.78l2.19,6.58c.2,1,1.59.8,1.79,0l1.99-6.58c.4-1.4,1.4-2.39,2.79-2.79l6.58-2.19c1-.2.8-1.59,0-1.79l-6.58-1.99c-1.4-.4-2.39-1.4-2.79-2.79l-2.19-6.58c-.2-1-1.59-.8-1.79,0l-1.99,6.58c-.4,1.4-1.4,2.39-2.79,2.79l-6.58,2.19c-1,.2-.8,1.59,0,1.79l6.58,1.99c1.4.4,2.39,1.4,2.79,2.79Z"/><path class="cls-1" d="m203.52,190.14c25.11-2.79,50.62-4.58,76.34-5.18-1.79-.2-3.59-1.4-4.38-3.19l-24.71-51.22c-18.34,17.54-34.28,37.47-47.24,59.59Z"/><path class="cls-1" d="m288.63,100.65c34.88-22.72,75.34-37.67,118.79-42.25,11.36,18.54,17.94,40.46,17.94,63.98,0,25.51-7.77,49.03-21.13,68.56-24.32-2.79-48.83-4.78-73.74-5.58v-.2l-41.86-84.51Z"/><path class="cls-5" d="m407.42,58.2c1.4,2.19,2.59,4.38,3.79,6.58-12.16,3.59-22.32,11.96-28.1,23.72l-46.04,95.87c-.2.4-.4.8-.6,1-1.99,0-3.79-.2-5.78-.2v-.2l-20.73-41.46,14.95-36.67c6.98-16.94,19.33-30.69,34.68-39.06,15.55-4.58,31.49-7.77,47.83-9.57Z"/><path class="cls-8" d="m336.26,185.56c-1.79-.2-3.79-.2-5.58-.2v-.2l-18.93-37.87c16.94-8.97,34.88-16.34,53.61-21.72l-28.1,58.6c-.4.4-.6,1-1,1.4Z"/></g><g><path class="cls-2" d="m1.68,282.45c-.52,0-1.04.17-1.39.7-.35.35-.35,1.04-.17,1.56l29.2,82.74c.17.7.87,1.04,1.56,1.04h13.73c.7,0,1.39-.52,1.56-1.04l29.2-82.91c.17-.52.17-1.04-.17-1.56-.35-.35-.87-.7-1.39-.7h-11.65c-.7,0-1.39.52-1.56,1.04l-22.94,65.7-22.94-65.7c-.17-.7-.87-1.04-1.56-1.04H1.68v.17Z"/><path class="cls-2" d="m189.22,282.45c-.52,0-1.04.35-1.39.87-.35.52-.35,1.04,0,1.56l28.68,53.01v29.03c0,.87.7,1.56,1.56,1.56h10.78c.87,0,1.56-.7,1.56-1.56v-29.2l28.68-53.01c.35-.52.35-1.04,0-1.56s-.87-.87-1.39-.87h-11.99c-.52,0-1.22.35-1.39.87l-20.86,39.46-21.03-39.46c-.35-.52-.87-.87-1.39-.87h-11.82v.17Z"/><path class="cls-2" d="m131.52,353.01c15.64,0,28.16-12.69,28.16-28.16s-12.69-28.16-28.16-28.16-28.16,12.69-28.16,28.16,12.51,28.16,28.16,28.16Zm0,14.77c23.81,0,43.11-19.29,43.11-43.11s-19.29-42.93-43.11-42.93-43.11,19.29-43.11,43.11,19.29,42.93,43.11,42.93Z"/><path class="cls-2" d="m400.24,281.23c-6.95,0-13.21,1.22-18.42,3.82-5.21,2.43-9.56,5.91-13.04,10.08h0c-3.48,4.17-5.91,8.86-7.65,14.08h0c-1.56,5.21-2.43,10.6-2.43,15.99s.87,10.78,2.43,15.99h0c1.74,5.21,4.17,9.91,7.65,14.08h0c3.48,4.17,7.82,7.65,13.04,10.08s11.3,3.65,18.25,3.65,13.21-1.39,18.95-4.35h0c5.74-3.13,10.26-7.65,13.56-13.56,3.48-5.91,5.21-13.38,5.21-22.07v-5.74c0-.87-.7-1.56-1.56-1.56h-35.11c-.87,0-1.56.7-1.56,1.56v9.56c0,.87.7,1.56,1.56,1.56h22.77c-.7,6.6-2.95,11.65-6.78,15.47-4.17,4.17-9.73,6.26-17.03,6.26-4.52,0-8.34-.87-11.65-2.43-3.3-1.74-6.26-4-8.52-6.95-2.26-2.95-4-6.26-5.04-9.91-1.22-3.82-1.74-7.65-1.74-11.65s.52-7.65,1.74-11.3h0c1.22-3.65,2.78-6.95,5.04-9.91h0c2.26-2.95,5.04-5.21,8.52-6.95,3.3-1.74,7.47-2.61,12.17-2.61,4,0,7.3.52,9.73,1.74h0c2.61,1.04,4.69,2.43,6.26,4.17h0c1.74,1.56,2.95,3.3,3.65,4.87h0c.87,1.74,1.39,2.95,1.56,4l.52,1.74c.17.7.87,1.22,1.56,1.22h11.12c.52,0,1.04-.17,1.22-.7.35-.35.35-.87.35-1.39l-.52-1.91c-.17-1.56-.87-3.3-1.56-5.39-.87-2.26-2.09-4.52-3.82-6.95-1.74-2.61-3.82-4.87-6.43-7.13-2.78-2.26-6.08-4-9.91-5.39-4-1.39-8.69-2.09-14.08-2.09Z"/><path class="cls-2" d="m462.81,282.45c-.87,0-1.56.7-1.56,1.56v82.74c0,.87.7,1.56,1.56,1.56h53.01c.87,0,1.56-.7,1.56-1.56v-9.56c0-.87-.7-1.56-1.56-1.56h-40.5v-24.68h34.76c.87,0,1.56-.7,1.56-1.56v-9.56c0-.87-.7-1.56-1.56-1.56h-34.76v-22.94h39.98c.87,0,1.56-.7,1.56-1.56v-9.56c0-.87-.7-1.56-1.56-1.56h-52.49v-.17Z"/><path class="cls-2" d="m544.5,282.45c-.87,0-1.56.7-1.56,1.56v82.74c0,.87.7,1.56,1.56,1.56h10.95c.87,0,1.56-.7,1.56-1.56v-33.2h12.51l19.47,34.07c.35.52.87.87,1.39.87h12.34c.52,0,1.04-.35,1.39-.87.35-.52.35-1.04,0-1.56l-19.81-33.89c3.3-1.04,6.26-2.61,8.52-4.87h0c2.78-2.61,5.04-5.56,6.43-8.86,1.39-3.3,2.09-6.78,2.09-10.43,0-4.35-1.04-8.34-3.13-12.34-2.09-4-5.21-7.13-9.39-9.56s-9.39-3.65-15.47-3.65h-28.85Zm12.51,38.59v-25.72h16.51c3.13,0,5.74.7,7.65,1.91,1.91,1.22,3.48,2.95,4.52,4.87h0c1.04,1.91,1.56,4,1.56,6.26,0,2.09-.52,4.17-1.56,6.26-1.04,1.91-2.43,3.48-4.52,4.69-1.91,1.22-4.35,1.91-7.65,1.91h-16.51v-.17Z"/><path class="cls-2" d="m298.21,282.45c-.7,0-1.39.52-1.56,1.04l-29.2,82.74c-.17.52-.17,1.04.17,1.56.35.35.87.7,1.39.7h11.65c.7,0,1.39-.52,1.56-1.04l10.26-29.55v-.35l12.51-35.81.35.87,12.17,34.94v.35l9.73,27.98.52,1.56c.17.7.87,1.04,1.56,1.04h11.65c.52,0,1.04-.17,1.39-.7.35-.35.35-1.04.17-1.56l-29.03-82.74c-.17-.7-.87-1.04-1.56-1.04h-13.73Z"/><g class="cls-7"><path class="cls-4" d="m12.11,435.23c-1.39,0-2.78-.17-4.17-.35-1.22-.17-2.26-.52-3.3-.87v-4.69c1.04.35,2.09.87,3.3,1.04,1.22.35,2.43.35,3.48.35,1.39,0,2.43-.17,3.13-.35.7-.17,1.04-.87,1.04-1.56,0-.52-.17-1.04-.52-1.39-.35-.35-.87-.7-1.56-.87-.7-.35-1.74-.52-2.95-1.04-1.56-.52-2.78-1.04-3.65-1.56s-1.56-1.22-1.91-2.09c-.35-.87-.52-1.74-.52-2.95,0-2.09.7-3.65,2.26-4.87,1.56-1.04,3.65-1.74,6.6-1.74,1.22,0,2.43.17,3.65.35,1.22.17,2.26.35,2.95.7v4.69c-1.04-.35-1.91-.7-2.95-.87-1.04-.17-1.91-.35-2.95-.35-1.22,0-2.26.17-2.95.35s-1.04.7-1.04,1.56c0,.52.17.87.35,1.22.35.35.7.52,1.39.7.7.17,1.56.52,2.78.87,1.74.52,3.13,1.04,4.17,1.74,1.04.7,1.56,1.39,1.91,2.26.35.87.52,1.91.52,2.95,0,1.91-.7,3.48-2.26,4.69-1.39,1.56-3.82,2.09-6.78,2.09Z"/><path class="cls-4" d="m35.57,434.88v-17.73h-6.43v-4.17h18.42v4.17h-6.43v17.73h-5.56Z"/><path class="cls-4" d="m53.65,434.88l8.34-22.07h5.91l8.34,22.07h-5.74l-1.91-5.04h-7.3l-1.91,5.04h-5.74Zm8.34-9.04h5.91l-2.95-7.65-2.95,7.65Z"/><path class="cls-4" d="m86.33,434.88v-22.07h10.95c2.61,0,4.52.7,5.74,2.09s1.91,3.13,1.91,5.56c0,1.56-.35,2.78-1.04,3.82-.7,1.04-1.74,1.91-3.13,2.43.35.17.52.52.7.87.17.35.35.7.7,1.22l2.61,5.91h-5.74l-2.43-5.56c-.17-.52-.52-.87-.87-1.04s-.7-.35-1.39-.35h-2.61v6.95h-5.39v.17Zm5.56-11.12h4c1.04,0,1.91-.35,2.43-.87.7-.52.87-1.39.87-2.43,0-2.26-1.04-3.3-3.13-3.3h-4.35v6.6h.17Z"/><path class="cls-4" d="m115.01,434.88v-22.07h5.56v8.52l7.65-8.52h6.26l-7.82,9.04,8.34,13.04h-5.91l-5.91-9.56-2.61,2.78v6.6h-5.56v.17Z"/><path class="cls-4" d="m144.73,434.88v-22.07h4.69l9.39,13.21v-13.21h5.56v22.07h-4.69l-9.39-13.21v13.21h-5.56Z"/><path class="cls-4" d="m174.97,434.88v-22.07h16.16v4.17h-10.78v4.69h9.39v4.35h-9.39v4.69h10.78v4.17h-16.16Z"/><path class="cls-4" d="m206.26,434.88v-17.73h-6.43v-4.17h18.42v4.17h-6.43v17.73h-5.56Z"/><path class="cls-4" d="m243.28,434.88v-22.07h10.6c2.26,0,3.82.52,4.87,1.56,1.04,1.04,1.56,2.43,1.56,4.35,0,1.22-.17,2.26-.7,2.95-.52.87-1.04,1.39-1.91,1.74,1.04.35,1.91.87,2.61,1.56s1.04,1.91,1.04,3.3c0,2.09-.52,3.82-1.74,4.87-1.22,1.04-2.78,1.56-5.04,1.56h-11.3v.17Zm3.65-12.51h6.43c1.22,0,2.09-.35,2.61-.87s.87-1.39.87-2.43c0-1.22-.35-1.91-.87-2.61-.52-.52-1.56-.87-3.13-.87h-6.08v6.78h.17Zm0,9.91h6.6c1.39,0,2.26-.35,2.95-.87.7-.52.87-1.56.87-2.95,0-1.22-.35-1.91-.87-2.61-.52-.52-1.74-.87-3.3-.87h-6.26v7.3Z"/><path class="cls-4" d="m271.96,434.88v-22.07h3.65v19.12h11.3v2.95h-14.95Z"/><path class="cls-4" d="m305.85,435.23c-3.48,0-6.08-.87-7.82-2.78-1.74-1.91-2.61-4.69-2.61-8.52s.87-6.95,2.61-8.69c1.74-1.74,4.35-2.78,7.82-2.78s6.08.87,7.82,2.78c1.74,1.74,2.61,4.69,2.61,8.69s-.87,6.78-2.61,8.52c-1.74,1.91-4.35,2.78-7.82,2.78Zm0-3.13c2.26,0,4-.7,5.04-1.91s1.56-3.3,1.56-6.26c0-3.13-.52-5.21-1.56-6.43-1.04-1.22-2.78-1.91-5.04-1.91s-4,.7-5.04,1.91-1.56,3.3-1.56,6.43c0,2.95.52,5.04,1.56,6.26,1.04,1.39,2.78,1.91,5.04,1.91Z"/><path class="cls-4" d="m337.49,435.23c-3.65,0-6.43-1.04-8.17-2.95-1.91-1.91-2.78-4.69-2.78-8,0-2.43.35-4.52,1.22-6.26.87-1.74,2.09-3.13,3.65-4,1.56-1.04,3.65-1.39,6.26-1.39,1.22,0,2.43.17,3.48.35s2.09.35,2.95.7v3.3c-.87-.35-1.91-.7-2.95-.87s-2.09-.35-3.3-.35c-2.78,0-4.69.7-5.74,2.26-1.04,1.39-1.74,3.65-1.74,6.26s.7,4.52,1.91,5.91c1.22,1.39,3.13,1.91,5.74,1.91,1.04,0,2.09,0,3.13-.17,1.04-.17,2.09-.52,2.95-.87v3.3c-.87.35-1.91.52-2.95.7-1.22.17-2.43.17-3.65.17Z"/><path class="cls-4" d="m354.7,434.88v-22.07h3.65v10.08l9.39-10.08h4.35l-8.17,8.86,8.52,13.21h-4l-6.78-10.78-3.3,3.48v7.3h-3.65Z"/><path class="cls-4" d="m398.32,434.88v-22.07h15.3v2.95h-11.65v6.6h10.43v2.95h-10.43v6.78h11.65v2.95h-15.3v-.17Z"/><path class="cls-4" d="m422.66,434.88l7.82-10.95-7.65-11.12h4.35l5.56,8.17,5.56-8.17h4.35l-7.65,11.12,7.82,10.95h-4.35l-5.74-8-5.74,8h-4.35Z"/><path class="cls-4" d="m453.08,434.88v-22.07h9.73c1.74,0,3.13.35,4.17,1.04s1.91,1.56,2.43,2.61.87,2.43.87,3.82c0,2.26-.7,4-2.09,5.21-1.39,1.39-3.13,1.91-5.39,1.91h-5.91v7.47h-3.82Zm3.65-10.26h5.21c1.56,0,2.61-.35,3.3-1.22.7-.7,1.04-1.74,1.04-3.13s-.35-2.43-1.04-3.3c-.7-.7-1.74-1.22-3.13-1.22h-5.39v8.86Z"/><path class="cls-4" d="m480.36,434.88v-22.07h3.65v19.12h11.3v2.95h-14.95Z"/><path class="cls-4" d="m514.26,435.23c-3.48,0-6.08-.87-7.82-2.78s-2.61-4.69-2.61-8.52.87-6.95,2.61-8.69,4.35-2.78,7.82-2.78,6.08.87,7.82,2.78c1.74,1.74,2.61,4.69,2.61,8.69s-.87,6.78-2.61,8.52c-1.74,1.91-4.35,2.78-7.82,2.78Zm0-3.13c2.26,0,4-.7,5.04-1.91,1.04-1.22,1.56-3.3,1.56-6.26,0-3.13-.52-5.21-1.56-6.43-1.04-1.22-2.78-1.91-5.04-1.91s-4,.7-5.04,1.91c-1.04,1.22-1.56,3.3-1.56,6.43,0,2.95.52,5.04,1.56,6.26,1.04,1.39,2.61,1.91,5.04,1.91Z"/><path class="cls-4" d="m535.46,434.88v-22.07h10.08c2.43,0,4.17.7,5.39,1.91s1.74,2.95,1.74,5.04c0,1.56-.35,2.95-1.22,4-.7,1.04-1.91,1.91-3.3,2.26.35.35.7.7,1.04,1.04.17.35.52.87.7,1.39l2.78,6.43h-3.82l-2.78-6.08c-.17-.52-.52-1.04-.87-1.22s-.87-.35-1.74-.35h-4.17v7.82h-3.82v-.17Zm3.65-10.78h5.39c1.39,0,2.43-.35,3.13-1.04s1.22-1.74,1.22-3.13c0-2.78-1.39-4.17-4-4.17h-5.74v8.34h0Z"/><path class="cls-4" d="m563.45,434.88v-22.07h15.3v2.95h-11.47v6.6h10.43v2.95h-10.43v6.78h11.65v2.95h-15.47v-.17Z"/><path class="cls-4" d="m589.35,434.88v-22.07h10.08c2.43,0,4.17.7,5.39,1.91s1.74,2.95,1.74,5.04c0,1.56-.35,2.95-1.22,4-.7,1.04-1.91,1.91-3.3,2.26.35.35.7.7,1.04,1.04.17.35.52.87.7,1.39l2.78,6.43h-3.82l-2.78-6.08c-.17-.52-.52-1.04-.87-1.22s-.87-.35-1.74-.35h-4.17v7.82h-3.82v-.17Zm3.82-10.78h5.39c1.39,0,2.43-.35,3.13-1.04s1.22-1.74,1.22-3.13c0-2.78-1.39-4.17-4-4.17h-5.74v8.34h0Z"/></g></g></svg>