<?xml version="1.0" encoding="UTF-8"?>
<svg id="Layer_1" data-name="Layer 1" xmlns="http://www.w3.org/2000/svg" viewBox="0 0 529.6 107.8">
  <defs>
    <style>
      .cls-1, .cls-2 {
        fill: #fff;
      }

      .cls-2 {
        fill-rule: evenodd;
      }
    </style>
  </defs>
  <g>
    <path class="cls-2" d="m172.21,38.75c-.3,0-.6.1-.8.4-.2.2-.2.6-.1.9l16.83,47.7c.1.4.5.6.9.6h7.97c.4,0,.8-.3.9-.6l16.83-47.7c.1-.3.1-.6-.1-.9s-.5-.4-.8-.4h-6.67c-.4,0-.8.3-.9.6l-13.25,37.94-13.25-37.94c-.1-.4-.5-.6-.9-.6h-6.67Z"/>
    <path class="cls-2" d="m280.27,38.75c-.3,0-.6.2-.8.5-.2.3-.2.6,0,.9l16.53,30.47v16.73c0,.5.4.9.9.9h6.27c.5,0,.9-.4.9-.9v-16.63l16.53-30.47c.2-.3.2-.6,0-.9-.2-.3-.5-.5-.8-.5h-6.87c-.3,0-.7.2-.8.5l-12.05,22.71-12.05-22.81c-.2-.3-.5-.5-.8-.5h-6.97Z"/>
    <path class="cls-2" d="m247.11,79.49c8.96,0,16.23-7.27,16.23-16.23s-7.27-16.23-16.23-16.23-16.23,7.27-16.23,16.23c-.1,8.96,7.27,16.23,16.23,16.23Zm0,8.56c13.74,0,24.8-11.15,24.8-24.8s-11.15-24.8-24.8-24.8-24.8,11.15-24.8,24.8,11.05,24.8,24.8,24.8Z"/>
    <path class="cls-2" d="m401.97,38.16c-3.98,0-7.57.7-10.66,2.19-2.99,1.39-5.48,3.39-7.57,5.88h0c-1.99,2.39-3.49,5.18-4.38,8.17h0c-.9,2.99-1.39,6.08-1.39,9.26s.5,6.17,1.39,9.26h0c1,2.99,2.49,5.68,4.38,8.17h0c1.99,2.39,4.48,4.38,7.47,5.78,2.99,1.49,6.57,2.19,10.56,2.19s7.67-.8,10.95-2.59h0c3.29-1.79,5.88-4.38,7.87-7.77,1.99-3.49,2.99-7.67,2.99-12.75v-3.29c0-.5-.4-.9-.9-.9h-20.22c-.5,0-.9.4-.9.9v5.18c0,.5.4.9.9.9h13.05c-.4,3.78-1.69,6.77-3.88,8.96-2.39,2.39-5.58,3.59-9.86,3.59-2.59,0-4.78-.5-6.77-1.39-1.89-1-3.59-2.39-4.88-3.98-1.29-1.69-2.29-3.59-2.89-5.78-.7-2.19-1-4.38-1-6.67s.3-4.38,1-6.47h0c.7-2.09,1.59-3.98,2.89-5.68h0c1.29-1.69,2.89-2.99,4.88-4.08,1.99-1,4.28-1.49,6.97-1.49,2.29,0,4.18.3,5.58,1h0c1.49.7,2.69,1.39,3.59,2.39h0c1,.9,1.69,1.89,2.09,2.79h0c.5,1,.8,1.69,1,2.29l.3,1c.1.4.5.7.9.7h6.37c.3,0,.6-.1.7-.4.2-.2.2-.5.2-.8l-.3-1.1c-.1-.9-.5-1.89-1-3.09-.5-1.29-1.2-2.59-2.19-3.98-1-1.49-2.19-2.79-3.68-4.08-1.59-1.29-3.49-2.29-5.78-3.09-1.99-.8-4.68-1.2-7.77-1.2Z"/>
    <path class="cls-2" d="m438.02,38.75c-.5,0-.9.4-.9.9v47.7c0,.5.4.9.9.9h30.57c.5,0,.9-.4.9-.9v-5.58c0-.5-.4-.9-.9-.9h-23.3v-14.04h20.02c.5,0,.9-.4.9-.9v-5.58c0-.5-.4-.9-.9-.9h-20.02v-13.25h23.01c.5,0,.9-.4.9-.9v-5.58c0-.5-.4-.9-.9-.9h-30.28v-.1Z"/>
    <path class="cls-2" d="m485.13,39.75c-.5,0-.9.4-.9.9v47.7c0,.5.4.9.9.9h6.27c.5,0,.9-.4.9-.9v-19.12h7.17l11.25,19.52c.2.3.5.5.8.5h7.17c.3,0,.6-.2.8-.5s.2-.7,0-.9l-11.35-19.52c1.89-.6,3.59-1.59,4.98-2.79h0c1.69-1.49,2.89-3.19,3.68-5.08.8-1.89,1.2-3.88,1.2-5.98,0-2.49-.6-4.88-1.79-7.07-1.2-2.29-2.99-4.08-5.38-5.48-2.39-1.39-5.38-2.09-8.96-2.09h-16.73v-.1Zm7.17,22.21v-14.84h9.56c1.89,0,3.29.4,4.38,1.1,1.2.7,1.99,1.69,2.59,2.79h0c.6,1.1.9,2.29.9,3.59,0,1.2-.3,2.39-.9,3.59-.6,1.1-1.39,1.99-2.59,2.69-1.1.7-2.59,1.1-4.38,1.1h-9.56Z"/>
    <path class="cls-2" d="m343.21,38.75c-.4,0-.8.3-.9.6l-16.83,47.7c-.1.3-.1.6.1.9.2.2.5.4.8.4h6.67c.4,0,.8-.3.9-.6l5.98-17.03v-.2l7.17-20.62.2.5,7.07,20.12v.2l5.68,16.13.3.9c.1.4.5.6.9.6h6.67c.3,0,.6-.1.8-.4.2-.2.2-.6.1-.9l-16.83-47.7c-.1-.4-.5-.6-.9-.6h-7.87Z"/>
  </g>
  <path class="cls-1" d="m72.4,7.15c33.32,0,60.44,27.11,60.44,60.44,0,11.75-3.36,23.11-9.73,32.94-11.26-1.35-23.16-2.24-35.41-2.66l-27.29-54.89c-2.97-5.93-8.93-9.62-15.57-9.62h-22.18c5.11-7.43,11.85-13.67,19.67-18.17,9.11-5.25,19.51-8.03,30.08-8.03m0-2c-22.6,0-42.47,12.06-53.41,30.2h25.85c5.88,0,11.15,3.24,13.78,8.51l27.77,55.85v.1c12.77.41,25.34,1.32,37.7,2.84,6.79-10.03,10.74-22.1,10.74-35.07,0-34.46-27.97-62.44-62.44-62.44h0Z"/>
  <path class="cls-1" d="m18.76,39.79c5.73.15,10.96,3.52,13.42,8.69l23.59,49.26c-11.56.38-23.06,1.21-34.27,2.48-6.24-9.68-9.53-20.94-9.53-32.64,0-9.65,2.35-19.23,6.8-27.79m-.39-2h-.81c-4.87,8.92-7.6,19.05-7.6,29.8,0,12.87,3.85,24.83,10.54,34.77,13.07-1.52,26.45-2.43,39.83-2.74-.91-.1-1.82-.71-2.23-1.62l-24.12-50.37c-2.84-5.98-8.92-9.83-15.61-9.83h0Z"/>
  <path class="cls-1" d="m21.52,102.25c12.87-1.42,25.85-2.33,38.92-2.64-.91-.1-1.82-.71-2.23-1.62l-12.57-26.25c-9.43,9.02-17.53,19.26-24.12,30.51Z"/>
  <path class="cls-1" d="m127.53,38.29c-6.18,1.83-11.45,6.08-14.28,12.06l-9.06,18.86s.03,0,.04-.01l-6.03,12.48-8.47,17.63c-.1.2-.2.41-.3.51-.03,0-.07,0-.1,0,0,0,0,0,0,0-.91,0-1.93-.1-2.84-.1v-.1l-10.64-21.18,7.6-18.75c3.52-8.65,9.84-15.5,17.57-19.87-12.96,3.82-25.1,9.49-36.11,16.72l21.49,43.18v.1c12.77.41,25.34,1.32,37.7,2.84,6.79-10.03,10.74-22.1,10.74-35.07,0-10.59-2.63-20.54-7.3-29.29Z"/>
  <path class="cls-2" d="m24.46,70.02l1.11,3.34c.1.51.81.41.91,0l1.01-3.34c.2-.71.71-1.22,1.42-1.42l3.34-1.11c.51-.1.41-.81,0-.91l-3.34-1.01c-.71-.2-1.22-.71-1.42-1.42l-1.11-3.34c-.1-.51-.81-.41-.91,0l-1.01,3.34c-.2.71-.71,1.22-1.42,1.42l-3.34,1.01c-.51.1-.41.81,0,.91l3.34,1.01c.71.3,1.22.81,1.42,1.52Z"/>
</svg>