<?xml version="1.0" encoding="utf-8"?>
<!-- Generator: Adobe Illustrator 27.5.0, SVG Export Plug-In . SVG Version: 6.00 Build 0)  -->
<svg version="1.1" id="Layer_1" xmlns="http://www.w3.org/2000/svg" xmlns:xlink="http://www.w3.org/1999/xlink" x="0px" y="0px"
	 width="529.6px" height="107.8px" viewBox="0 0 529.6 107.8" style="enable-background:new 0 0 529.6 107.8;" xml:space="preserve"
	>
<style type="text/css">
	.st0{fill:#FFEAD2;}
	.st1{fill-rule:evenodd;clip-rule:evenodd;fill:#FFEAD2;}
	.st2{fill:#FF4A04;}
	.st3{opacity:0.65;fill:#121212;enable-background:new    ;}
	.st4{opacity:0.56;fill:#1B1B1B;enable-background:new    ;}
	.st5{fill-rule:evenodd;clip-rule:evenodd;fill:#FFFFFF;}
	.st6{fill:#FFFFFF;}
	.st7{fill:#BDBDBD;}
	.st8{fill:#7C7B7B;}
	.st9{fill:#5B5B5B;}
</style>
<g>
	<g>
		<path class="st0" d="M134.8,67.5c0,13-4,25-10.8,35c-12.4-1.4-24.9-2.4-37.7-2.8v-0.1L58.6,43.8c-2.6-5.2-7.9-8.5-13.8-8.5H18.9
			c11-18.1,30.8-30.1,53.4-30.1C106.9,5.1,134.8,33,134.8,67.5z"/>
		<path class="st1" d="M10,67.5c0,12.9,3.9,24.8,10.6,34.8c13.1-1.5,26.5-2.4,39.9-2.7c-0.9-0.1-1.8-0.7-2.2-1.6L34,47.7
			c-2.8-6-9-9.8-15.6-9.8h-0.8C12.7,46.7,10,56.7,10,67.5z M24.4,70l1.1,3.4c0.1,0.5,0.8,0.4,0.9,0l1-3.4c0.2-0.7,0.7-1.2,1.4-1.4
			l3.4-1.1c0.5-0.1,0.4-0.8,0-0.9l-3.4-1c-0.7-0.2-1.2-0.7-1.4-1.4l-1.1-3.4c-0.1-0.5-0.8-0.4-0.9,0l-1,3.4
			c-0.2,0.7-0.7,1.2-1.4,1.4l-3.4,1.1c-0.5,0.1-0.4,0.8,0,0.9l3.4,1C23.7,68.8,24.2,69.3,24.4,70z"/>
		<path class="st2" d="M21.5,102.2c12.8-1.4,25.9-2.3,39-2.6c-0.9-0.1-1.8-0.7-2.2-1.6L45.6,71.8C36.2,80.8,28.1,90.9,21.5,102.2z"
			/>
		<path class="st2" d="M64.9,56.5c17.8-11.6,38.5-19.2,60.7-21.6c5.8,9.5,9.2,20.7,9.2,32.7c0,13-4,25-10.8,35
			c-12.4-1.4-24.9-2.4-37.7-2.8v-0.1L64.9,56.5z"/>
		<path class="st3" d="M125.6,34.9c0.7,1.1,1.3,2.2,1.9,3.4c-6.2,1.8-11.4,6.1-14.4,12.1l-23.5,49c-0.1,0.2-0.2,0.4-0.3,0.5
			c-1,0-1.9-0.1-3-0.1v-0.1L75.8,78.4l7.6-18.7c3.6-8.7,9.9-15.7,17.7-19.9C109.1,37.4,117.2,35.8,125.6,34.9z"/>
		<path class="st4" d="M89.3,99.9c-0.9-0.1-1.9-0.1-2.8-0.1v-0.1l-9.7-19.3c8.7-4.6,17.8-8.3,27.4-11.1L89.8,99.2
			C89.6,99.4,89.5,99.7,89.3,99.9z"/>
	</g>
	<g>
		<g>
			<g>
				<g>
					<path class="st5" d="M172.2,38.8c-0.3,0-0.6,0.1-0.8,0.4c-0.2,0.2-0.2,0.6-0.1,0.9l16.8,47.7c0.1,0.4,0.5,0.6,0.9,0.6h8
						c0.4,0,0.8-0.3,0.9-0.6L214.7,40c0.1-0.3,0.1-0.6-0.1-0.9s-0.5-0.4-0.8-0.4h-6.7c-0.4,0-0.8,0.3-0.9,0.6L193,77.3l-13.2-37.9
						c-0.1-0.4-0.5-0.6-0.9-0.6H172.2z"/>
					<path class="st5" d="M280.3,38.8c-0.3,0-0.6,0.2-0.8,0.5c-0.2,0.3-0.2,0.6,0,0.9L296,70.6v16.7c0,0.5,0.4,0.9,0.9,0.9h6.3
						c0.5,0,0.9-0.4,0.9-0.9V70.7l16.5-30.5c0.2-0.3,0.2-0.6,0-0.9c-0.2-0.3-0.5-0.5-0.8-0.5h-6.9c-0.3,0-0.7,0.2-0.8,0.5
						l-12.1,22.7L288,39.3c-0.2-0.3-0.5-0.5-0.8-0.5H280.3z"/>
					<path class="st5" d="M247.1,79.5c9,0,16.2-7.3,16.2-16.2S256.1,47,247.1,47s-16.2,7.3-16.2,16.2
						C230.8,72.2,238.1,79.5,247.1,79.5z M247.1,88c13.7,0,24.8-11.2,24.8-24.8s-11.2-24.8-24.8-24.8c-13.7,0-24.8,11.2-24.8,24.8
						S233.4,88,247.1,88z"/>
					<path class="st5" d="M402,38.2c-4,0-7.6,0.7-10.7,2.2c-3,1.4-5.5,3.4-7.6,5.9l0,0c-2,2.4-3.5,5.2-4.4,8.2l0,0
						c-0.9,3-1.4,6.1-1.4,9.3c0,3.2,0.5,6.2,1.4,9.3l0,0c1,3,2.5,5.7,4.4,8.2l0,0c2,2.4,4.5,4.4,7.5,5.8c3,1.5,6.6,2.2,10.6,2.2
						c4,0,7.7-0.8,11-2.6l0,0c3.3-1.8,5.9-4.4,7.9-7.8c2-3.5,3-7.7,3-12.7v-3.3c0-0.5-0.4-0.9-0.9-0.9h-20.2c-0.5,0-0.9,0.4-0.9,0.9
						v5.2c0,0.5,0.4,0.9,0.9,0.9h13c-0.4,3.8-1.7,6.8-3.9,9c-2.4,2.4-5.6,3.6-9.9,3.6c-2.6,0-4.8-0.5-6.8-1.4c-1.9-1-3.6-2.4-4.9-4
						c-1.3-1.7-2.3-3.6-2.9-5.8c-0.7-2.2-1-4.4-1-6.7c0-2.2,0.3-4.4,1-6.5l0,0c0.7-2.1,1.6-4,2.9-5.7l0,0c1.3-1.7,2.9-3,4.9-4.1
						c2-1,4.3-1.5,7-1.5c2.3,0,4.2,0.3,5.6,1l0,0c1.5,0.7,2.7,1.4,3.6,2.4l0,0c1,0.9,1.7,1.9,2.1,2.8l0,0c0.5,1,0.8,1.7,1,2.3l0.3,1
						c0.1,0.4,0.5,0.7,0.9,0.7h6.4c0.3,0,0.6-0.1,0.7-0.4c0.2-0.2,0.2-0.5,0.2-0.8l-0.3-1.1c-0.1-0.9-0.5-1.9-1-3.1
						c-0.5-1.3-1.2-2.6-2.2-4c-1-1.5-2.2-2.8-3.7-4.1c-1.6-1.3-3.5-2.3-5.8-3.1C407.7,38.6,405.1,38.2,402,38.2z"/>
					<path class="st5" d="M438,38.8c-0.5,0-0.9,0.4-0.9,0.9v47.7c0,0.5,0.4,0.9,0.9,0.9h30.6c0.5,0,0.9-0.4,0.9-0.9v-5.6
						c0-0.5-0.4-0.9-0.9-0.9h-23.3v-14h20c0.5,0,0.9-0.4,0.9-0.9v-5.6c0-0.5-0.4-0.9-0.9-0.9h-20V46.2h23c0.5,0,0.9-0.4,0.9-0.9
						v-5.6c0-0.5-0.4-0.9-0.9-0.9L438,38.8L438,38.8z"/>
					<path class="st5" d="M485.1,39.7c-0.5,0-0.9,0.4-0.9,0.9v47.7c0,0.5,0.4,0.9,0.9,0.9h6.3c0.5,0,0.9-0.4,0.9-0.9V69.2h7.2
						l11.3,19.5c0.2,0.3,0.5,0.5,0.8,0.5h7.2c0.3,0,0.6-0.2,0.8-0.5c0.2-0.3,0.2-0.7,0-0.9l-11.4-19.5c1.9-0.6,3.6-1.6,5-2.8l0,0
						c1.7-1.5,2.9-3.2,3.7-5.1c0.8-1.9,1.2-3.9,1.2-6c0-2.5-0.6-4.9-1.8-7.1c-1.2-2.3-3-4.1-5.4-5.5c-2.4-1.4-5.4-2.1-9-2.1
						L485.1,39.7L485.1,39.7z M492.3,62V47.1h9.6c1.9,0,3.3,0.4,4.4,1.1c1.2,0.7,2,1.7,2.6,2.8l0,0c0.6,1.1,0.9,2.3,0.9,3.6
						c0,1.2-0.3,2.4-0.9,3.6c-0.6,1.1-1.4,2-2.6,2.7c-1.1,0.7-2.6,1.1-4.4,1.1L492.3,62z"/>
					<path class="st5" d="M343.2,38.8c-0.4,0-0.8,0.3-0.9,0.6l-16.8,47.7c-0.1,0.3-0.1,0.6,0.1,0.9c0.2,0.2,0.5,0.4,0.8,0.4h6.7
						c0.4,0,0.8-0.3,0.9-0.6l6-17c0-0.1,0-0.1,0-0.2l7.2-20.6l0.2,0.5l7.1,20.1c0,0.1,0,0.1,0,0.2l5.7,16.1l0.3,0.9
						c0.1,0.4,0.5,0.6,0.9,0.6h6.7c0.3,0,0.6-0.1,0.8-0.4c0.2-0.2,0.2-0.6,0.1-0.9L352,39.4c-0.1-0.4-0.5-0.6-0.9-0.6H343.2z"/>
				</g>
			</g>
		</g>
	</g>
</g>
<g>
	<g>
		<g>
			<path class="st5" d="M172.3,38.6c-0.3,0-0.6,0.1-0.8,0.4c-0.2,0.2-0.2,0.6-0.1,0.9l16.8,47.7c0.1,0.4,0.5,0.6,0.9,0.6h8
				c0.4,0,0.8-0.3,0.9-0.6l16.8-47.7c0.1-0.3,0.1-0.6-0.1-0.9c-0.2-0.3-0.5-0.4-0.8-0.4h-6.7c-0.4,0-0.8,0.3-0.9,0.6l-13.3,38
				l-13.3-38c-0.1-0.4-0.5-0.6-0.9-0.6H172.3z"/>
			<path class="st5" d="M280.5,38.6c-0.3,0-0.6,0.2-0.8,0.5c-0.2,0.3-0.2,0.6,0,0.9l16.5,30.5v16.7c0,0.5,0.4,0.9,0.9,0.9h6.3
				c0.5,0,0.9-0.4,0.9-0.9V70.6l16.5-30.5c0.2-0.3,0.2-0.6,0-0.9c-0.2-0.3-0.5-0.5-0.8-0.5h-6.9c-0.3,0-0.7,0.2-0.8,0.5l-12.1,22.7
				l-12.1-22.8c-0.2-0.3-0.5-0.5-0.8-0.5H280.5z"/>
			<path class="st5" d="M247.3,79.4c9,0,16.2-7.3,16.2-16.2s-7.3-16.2-16.2-16.2c-9,0-16.2,7.3-16.2,16.2
				C230.9,72.1,238.3,79.4,247.3,79.4z M247.3,88c13.8,0,24.8-11.2,24.8-24.8s-11.2-24.8-24.8-24.8c-13.8,0-24.8,11.2-24.8,24.8
				S233.5,88,247.3,88z"/>
			<path class="st5" d="M402.3,38c-4,0-7.6,0.7-10.7,2.2c-3,1.4-5.5,3.4-7.6,5.9l0,0c-2,2.4-3.5,5.2-4.4,8.2l0,0
				c-0.9,3-1.4,6.1-1.4,9.3c0,3.2,0.5,6.2,1.4,9.3l0,0c1,3,2.5,5.7,4.4,8.2l0,0c2,2.4,4.5,4.4,7.5,5.8c3,1.5,6.6,2.2,10.6,2.2
				s7.7-0.8,11-2.6l0,0c3.3-1.8,5.9-4.4,7.9-7.8c2-3.5,3-7.7,3-12.8v-3.3c0-0.5-0.4-0.9-0.9-0.9h-20.2c-0.5,0-0.9,0.4-0.9,0.9v5.2
				c0,0.5,0.4,0.9,0.9,0.9h13.1c-0.4,3.8-1.7,6.8-3.9,9c-2.4,2.4-5.6,3.6-9.9,3.6c-2.6,0-4.8-0.5-6.8-1.4c-1.9-1-3.6-2.4-4.9-4
				c-1.3-1.7-2.3-3.6-2.9-5.8c-0.7-2.2-1-4.4-1-6.7c0-2.2,0.3-4.4,1-6.5l0,0c0.7-2.1,1.6-4,2.9-5.7l0,0c1.3-1.7,2.9-3,4.9-4.1
				c2-1,4.3-1.5,7-1.5c2.3,0,4.2,0.3,5.6,1l0,0c1.5,0.7,2.7,1.4,3.6,2.4l0,0c1,0.9,1.7,1.9,2.1,2.8l0,0c0.5,1,0.8,1.7,1,2.3l0.3,1
				c0.1,0.4,0.5,0.7,0.9,0.7h6.4c0.3,0,0.6-0.1,0.7-0.4c0.2-0.2,0.2-0.5,0.2-0.8l-0.3-1.1c-0.1-0.9-0.5-1.9-1-3.1
				c-0.5-1.3-1.2-2.6-2.2-4c-1-1.5-2.2-2.8-3.7-4.1c-1.6-1.3-3.5-2.3-5.8-3.1C408,38.4,405.3,38,402.3,38z"/>
			<path class="st5" d="M438.3,38.6c-0.5,0-0.9,0.4-0.9,0.9v47.7c0,0.5,0.4,0.9,0.9,0.9h30.6c0.5,0,0.9-0.4,0.9-0.9v-5.6
				c0-0.5-0.4-0.9-0.9-0.9h-23.3V66.7h20c0.5,0,0.9-0.4,0.9-0.9v-5.6c0-0.5-0.4-0.9-0.9-0.9h-20V46.1h23c0.5,0,0.9-0.4,0.9-0.9v-5.6
				c0-0.5-0.4-0.9-0.9-0.9L438.3,38.6L438.3,38.6z"/>
			<path class="st5" d="M485.5,39.6c-0.5,0-0.9,0.4-0.9,0.9v47.7c0,0.5,0.4,0.9,0.9,0.9h6.3c0.5,0,0.9-0.4,0.9-0.9V69.1h7.2
				l11.3,19.5c0.2,0.3,0.5,0.5,0.8,0.5h7.2c0.3,0,0.6-0.2,0.8-0.5c0.2-0.3,0.2-0.7,0-0.9l-11.4-19.5c1.9-0.6,3.6-1.6,5-2.8l0,0
				c1.7-1.5,2.9-3.2,3.7-5.1c0.8-1.9,1.2-3.9,1.2-6c0-2.5-0.6-4.9-1.8-7.1c-1.2-2.3-3-4.1-5.4-5.5c-2.4-1.4-5.4-2.1-9-2.1
				L485.5,39.6L485.5,39.6z M492.6,61.8V47h9.6c1.9,0,3.3,0.4,4.4,1.1c1.2,0.7,2,1.7,2.6,2.8l0,0c0.6,1.1,0.9,2.3,0.9,3.6
				c0,1.2-0.3,2.4-0.9,3.6c-0.6,1.1-1.4,2-2.6,2.7c-1.1,0.7-2.6,1.1-4.4,1.1L492.6,61.8z"/>
			<path class="st5" d="M343.5,38.6c-0.4,0-0.8,0.3-0.9,0.6L325.7,87c-0.1,0.3-0.1,0.6,0.1,0.9c0.2,0.2,0.5,0.4,0.8,0.4h6.7
				c0.4,0,0.8-0.3,0.9-0.6l6-17c0-0.1,0-0.1,0-0.2l7.2-20.6l0.2,0.5l7.1,20.1c0,0.1,0,0.1,0,0.2l5.7,16.1l0.3,0.9
				c0.1,0.4,0.5,0.6,0.9,0.6h6.7c0.3,0,0.6-0.1,0.8-0.4c0.2-0.2,0.2-0.6,0.1-0.9l-16.8-47.7c-0.1-0.4-0.5-0.6-0.9-0.6H343.5z"/>
		</g>
	</g>
	<g>
		<path class="st6" d="M134.9,67.6c0,13-4,25.1-10.8,35c-12.4-1.4-24.9-2.4-37.7-2.9v-0.1L58.7,43.9c-2.6-5.2-7.9-8.6-13.8-8.6H19
			C30,17.2,49.8,5.2,72.4,5.2C106.9,5.2,134.9,33.1,134.9,67.6z"/>
		<path class="st5" d="M10,67.6c0,12.9,3.9,24.8,10.6,34.8c13.1-1.5,26.5-2.4,39.9-2.7c-0.9-0.1-1.8-0.7-2.2-1.6L34,47.7
			c-2.9-6-9-9.8-15.6-9.8h-0.8C12.7,46.7,10,56.8,10,67.6z M24.5,70l1.1,3.4c0.1,0.5,0.8,0.4,0.9,0l1-3.4c0.2-0.7,0.7-1.2,1.4-1.4
			l3.4-1.1c0.5-0.1,0.4-0.8,0-0.9l-3.4-1c-0.7-0.2-1.2-0.7-1.4-1.4l-1.1-3.4c-0.1-0.5-0.8-0.4-0.9,0l-1,3.4
			c-0.2,0.7-0.7,1.2-1.4,1.4l-3.4,1.1c-0.5,0.1-0.4,0.8,0,0.9l3.4,1C23.7,68.8,24.3,69.3,24.5,70z"/>
		<path class="st7" d="M20.6,102.4c12.8-1.4,26.8-2.4,39.9-2.7c-0.9-0.1-1.8-0.7-2.2-1.6L45.7,71.9C36.3,80.8,27.2,91.1,20.6,102.4z
			"/>
		<path class="st7" d="M65,56.6c17.8-11.6,38.5-19.3,60.7-21.7c5.8,9.5,9.2,20.7,9.2,32.8c0,13-4,25-10.8,34.9
			c-12.4-1.4-25.1-2.3-37.8-2.7v-0.1L65,56.6z"/>
		<path class="st8" d="M125.7,34.9c0.7,1.1,1.3,2.2,1.9,3.4c-6.2,1.8-11.6,6.1-14.5,12.2l-23.5,49c-0.1,0.2-0.2,0.4-0.3,0.5
			c-1,0-1.9-0.1-3-0.1v-0.1L75.8,78.5l7.6-18.7c3.6-8.7,9.9-15.7,17.7-20C109.1,37.5,117.4,35.8,125.7,34.9z"/>
		<path class="st9" d="M89.3,100c-0.9,0-2-0.1-2.9-0.1v-0.1l-9.7-19.3c8.7-4.6,17.8-8.4,27.4-11.1L89.7,99.3
			C89.6,99.6,89.5,99.8,89.3,100z"/>
	</g>
</g>
</svg>
