<?xml version="1.0" encoding="UTF-8"?>
<svg id="Layer_1" data-name="Layer 1" xmlns="http://www.w3.org/2000/svg" viewBox="0 0 123.2 96.2">
  <defs>
    <style>
      .cls-1, .cls-2 {
        fill: #fff;
      }

      .cls-2 {
        fill-rule: evenodd;
      }
    </style>
  </defs>
  <path class="cls-1" d="m61.6,2.31c32.64,0,59.2,26.56,59.2,59.2,0,11.51-3.29,22.64-9.53,32.26-11.03-1.32-22.68-2.19-34.68-2.61l-26.73-53.76c-2.91-5.81-8.75-9.42-15.25-9.42H12.87c5.01-7.27,11.61-13.38,19.26-17.8,8.92-5.15,19.11-7.87,29.46-7.87m0-1.96C39.46.35,20,12.16,9.28,29.93h25.32c5.76,0,10.92,3.18,13.5,8.34l27.2,54.7v.1c12.51.4,24.82,1.29,36.93,2.78,6.65-9.83,10.52-21.64,10.52-34.35C122.75,27.75,95.35.35,61.6.35h0Z"/>
  <path class="cls-1" d="m9.06,34.28c5.61.14,10.74,3.45,13.14,8.51l23.1,48.25c-11.32.37-22.59,1.19-33.57,2.43-6.11-9.49-9.34-20.51-9.34-31.97,0-9.45,2.3-18.84,6.66-27.22m-.38-1.96h-.79C3.13,41.05.45,50.98.45,61.5c0,12.61,3.77,24.32,10.32,34.05,12.81-1.49,25.91-2.38,39.02-2.68-.89-.1-1.79-.69-2.18-1.59l-23.63-49.34c-2.78-5.86-8.74-9.63-15.29-9.63h0Z"/>
  <path class="cls-1" d="m11.76,95.46c12.61-1.39,25.32-2.28,38.12-2.58-.89-.1-1.79-.69-2.18-1.59l-12.31-25.71c-9.23,8.84-17.17,18.86-23.63,29.88Z"/>
  <path class="cls-1" d="m115.6,32.81c-6.05,1.79-11.21,5.96-13.99,11.81l-8.88,18.48s.03,0,.04-.01l-5.9,12.22-8.29,17.26c-.1.2-.2.4-.3.5-.03,0-.06,0-.1,0,0,0,0,0,0,0-.89,0-1.89-.1-2.78-.1v-.1l-10.42-20.75,7.45-18.37c3.45-8.47,9.64-15.19,17.21-19.46-12.69,3.74-24.59,9.29-35.37,16.38l21.05,42.29v.1c12.51.4,24.82,1.29,36.93,2.78,6.65-9.83,10.52-21.64,10.52-34.35,0-10.37-2.57-20.11-7.15-28.69Z"/>
  <path class="cls-2" d="m14.64,63.89l1.09,3.28c.1.5.79.4.89,0l.99-3.28c.2-.69.69-1.19,1.39-1.39l3.28-1.09c.5-.1.4-.79,0-.89l-3.28-.99c-.69-.2-1.19-.69-1.39-1.39l-1.09-3.28c-.1-.5-.79-.4-.89,0l-.99,3.28c-.2.69-.69,1.19-1.39,1.39l-3.28.99c-.5.1-.4.79,0,.89l3.28.99c.69.3,1.19.79,1.39,1.49Z"/>
</svg>